<svg width="30" height="30" viewBox="0 0 30 30" fill="none" xmlns="http://www.w3.org/2000/svg">
<g clip-path="url(#clip0)">
<path d="M1.87501 2.04125C-0.482495 4.49 4.93228e-06 7.09125 4.93228e-06 14.9937C4.93228e-06 21.5562 -1.145 28.135 4.84751 29.6837C6.71875 30.165 23.2988 30.165 25.1675 29.6812C27.6625 29.0375 29.6925 27.0137 29.97 23.485C30.0088 22.9925 30.0088 7.00375 29.9688 6.50125C29.6738 2.7425 27.36 0.576247 24.3113 0.137497C23.6125 0.036247 23.4725 0.00624696 19.8875 -3.03984e-06C7.17125 0.00624696 4.38375 -0.560003 1.87501 2.04125Z" fill="url(#paint0_linear)"/>
<path d="M14.9975 3.92365C10.4588 3.92365 6.14876 3.5199 4.50251 7.7449C3.82251 9.4899 3.92126 11.7562 3.92126 15.0012C3.92126 17.8487 3.83001 20.5249 4.50251 22.2562C6.14501 26.4837 10.49 26.0787 14.995 26.0787C19.3413 26.0787 23.8225 26.5312 25.4888 22.2562C26.17 20.4937 26.07 18.2612 26.07 15.0012C26.07 10.6737 26.3088 7.8799 24.21 5.7824C22.085 3.6574 19.2113 3.92365 14.9925 3.92365H14.9975ZM14.005 5.9199C23.4725 5.9049 24.6775 4.85241 24.0125 19.4737C23.7763 24.6449 19.8388 24.0774 14.9988 24.0774C6.17376 24.0774 5.92001 23.8249 5.92001 14.9962C5.92001 6.0649 6.62001 5.9249 14.005 5.9174V5.9199ZM20.91 7.75865C20.1763 7.75865 19.5813 8.35365 19.5813 9.0874C19.5813 9.82115 20.1763 10.4162 20.91 10.4162C21.6438 10.4162 22.2388 9.82115 22.2388 9.0874C22.2388 8.35365 21.6438 7.75865 20.91 7.75865ZM14.9975 9.3124C11.8563 9.3124 9.31001 11.8599 9.31001 15.0012C9.31001 18.1424 11.8563 20.6887 14.9975 20.6887C18.1388 20.6887 20.6838 18.1424 20.6838 15.0012C20.6838 11.8599 18.1388 9.3124 14.9975 9.3124ZM14.9975 11.3087C19.8788 11.3087 19.885 18.6937 14.9975 18.6937C10.1175 18.6937 10.11 11.3087 14.9975 11.3087Z" fill="white"/>
</g>
<defs>
<linearGradient id="paint0_linear" x1="1.93253" y1="28.0839" x2="29.8144" y2="3.95247" gradientUnits="userSpaceOnUse">
<stop stop-color="#FFDD55"/>
<stop offset="0.5" stop-color="#FF543E"/>
<stop offset="1" stop-color="#C837AB"/>
</linearGradient>
<clipPath id="clip0">
<rect width="30" height="30" fill="white"/>
</clipPath>
</defs>
</svg>
