<svg width="135" height="38" viewBox="0 0 135 38" fill="none" xmlns="http://www.w3.org/2000/svg">
<path d="M51.828 7.026C51.2493 6.93267 50.7733 6.79267 50.4 6.606V6.2H57.764V6.606C57.4373 6.774 57.0547 6.89067 56.616 6.956V15.258C57.0547 15.3327 57.4373 15.4447 57.764 15.594V16H54.208V15.594C54.376 15.5193 54.5487 15.4587 54.726 15.412C54.9033 15.356 55.0853 15.3047 55.272 15.258V6.928H52.654C52.6167 8.39333 52.5467 9.61133 52.444 10.582C52.3507 11.5433 52.2293 12.3413 52.08 12.976C51.9307 13.6013 51.758 14.1007 51.562 14.474C51.3753 14.8473 51.17 15.1787 50.946 15.468C50.7593 15.7107 50.5307 15.888 50.26 16C49.9893 16.112 49.728 16.168 49.476 16.168C49.4107 16.0933 49.3407 15.9907 49.266 15.86C49.2007 15.72 49.1353 15.5753 49.07 15.426C49.014 15.2673 48.9673 15.1133 48.93 14.964C48.8927 14.8053 48.8693 14.6653 48.86 14.544L49.07 14.194L50.68 14.488C50.82 14.2547 50.9553 13.9467 51.086 13.564C51.226 13.1813 51.3473 12.696 51.45 12.108C51.562 11.5107 51.6507 10.7967 51.716 9.966C51.7907 9.13533 51.828 8.15533 51.828 7.026ZM63.9138 14.166C63.9138 14.3713 63.9185 14.5487 63.9278 14.698C63.9372 14.8473 63.9465 15.006 63.9558 15.174L64.9218 15.314V15.608C64.6885 15.7293 64.4272 15.8367 64.1378 15.93C63.8578 16.0233 63.5872 16.0933 63.3258 16.14H62.9758C62.8825 15.9253 62.8265 15.692 62.8078 15.44C62.7892 15.1787 62.7752 14.894 62.7658 14.586H62.6958C62.6585 14.7727 62.5838 14.964 62.4718 15.16C62.3692 15.3467 62.2292 15.5147 62.0518 15.664C61.8838 15.8133 61.6832 15.9347 61.4498 16.028C61.2165 16.1213 60.9505 16.168 60.6518 16.168C60.0825 16.168 59.6158 15.9953 59.2518 15.65C58.8972 15.3047 58.7198 14.852 58.7198 14.292C58.7198 13.8627 58.8038 13.5127 58.9718 13.242C59.1492 12.962 59.4058 12.7427 59.7418 12.584C60.0778 12.4253 60.4932 12.3133 60.9878 12.248C61.4825 12.1733 62.0565 12.1173 62.7098 12.08C62.7472 11.6787 62.7565 11.3193 62.7378 11.002C62.7285 10.6753 62.6772 10.4 62.5838 10.176C62.4998 9.94267 62.3692 9.76533 62.1918 9.644C62.0238 9.51333 61.7998 9.448 61.5198 9.448C61.3892 9.448 61.2398 9.45733 61.0718 9.476C60.9132 9.48533 60.7545 9.52267 60.5958 9.588L59.9378 11.268H59.5738C59.4805 10.988 59.3965 10.6987 59.3218 10.4C59.2565 10.1013 59.2145 9.80733 59.1958 9.518C59.5505 9.30333 59.9425 9.13533 60.3718 9.014C60.8105 8.89267 61.2958 8.832 61.8278 8.832C62.3038 8.832 62.6818 8.902 62.9618 9.042C63.2512 9.17267 63.4705 9.34533 63.6198 9.56C63.7692 9.77467 63.8672 10.0127 63.9138 10.274C63.9605 10.5353 63.9838 10.7967 63.9838 11.058C63.9838 11.618 63.9698 12.1593 63.9418 12.682C63.9232 13.1953 63.9138 13.69 63.9138 14.166ZM61.2118 15.3C61.4452 15.3 61.6505 15.2533 61.8278 15.16C62.0052 15.0667 62.1545 14.9547 62.2758 14.824C62.3972 14.6933 62.4952 14.5627 62.5698 14.432C62.6445 14.292 62.6958 14.1753 62.7238 14.082V12.612C62.1825 12.612 61.7392 12.64 61.3938 12.696C61.0485 12.752 60.7778 12.8407 60.5818 12.962C60.3858 13.0833 60.2505 13.2373 60.1758 13.424C60.1012 13.6013 60.0638 13.8067 60.0638 14.04C60.0638 14.4413 60.1665 14.754 60.3718 14.978C60.5772 15.1927 60.8572 15.3 61.2118 15.3ZM65.8162 12.332C65.8162 11.1373 65.9142 10.1387 66.1102 9.336C66.3062 8.524 66.6002 7.87533 66.9922 7.39C67.3935 6.89533 67.8975 6.54533 68.5042 6.34C69.1109 6.13467 69.8202 6.032 70.6322 6.032L71.5422 5.332H71.9062C71.8969 5.5 71.8782 5.682 71.8502 5.878C71.8222 6.06467 71.7849 6.24667 71.7382 6.424C71.7009 6.592 71.6589 6.74133 71.6122 6.872C71.5749 7.00267 71.5422 7.096 71.5142 7.152C70.6555 7.152 69.9275 7.194 69.3302 7.278C68.7329 7.362 68.2382 7.53467 67.8462 7.796C67.4542 8.05733 67.1555 8.43533 66.9502 8.93C66.7542 9.42467 66.6235 10.078 66.5582 10.89H66.6282C66.7402 10.6473 66.8895 10.414 67.0762 10.19C67.2722 9.966 67.4915 9.77 67.7342 9.602C67.9862 9.434 68.2522 9.29867 68.5322 9.196C68.8122 9.09333 69.0969 9.042 69.3862 9.042C71.2902 9.042 72.2422 10.1853 72.2422 12.472C72.2422 13.0133 72.1675 13.5127 72.0182 13.97C71.8689 14.418 71.6495 14.8053 71.3602 15.132C71.0709 15.4587 70.7209 15.7153 70.3102 15.902C69.8995 16.0793 69.4375 16.168 68.9242 16.168C68.4575 16.168 68.0329 16.084 67.6502 15.916C67.2675 15.7387 66.9409 15.4867 66.6702 15.16C66.3995 14.824 66.1895 14.4227 66.0402 13.956C65.8909 13.48 65.8162 12.9387 65.8162 12.332ZM67.1322 12.332C67.1322 12.92 67.1835 13.4193 67.2862 13.83C67.3982 14.2313 67.5475 14.5627 67.7342 14.824C67.9209 15.076 68.1355 15.2627 68.3782 15.384C68.6302 15.496 68.8915 15.552 69.1622 15.552C69.7222 15.552 70.1422 15.3 70.4222 14.796C70.7115 14.292 70.8562 13.5733 70.8562 12.64C70.8562 11.688 70.6742 10.9927 70.3102 10.554C69.9462 10.1153 69.4422 9.896 68.7982 9.896C68.5555 9.896 68.2895 9.97067 68.0002 10.12C67.7202 10.2693 67.4822 10.47 67.2862 10.722C67.2395 10.9553 67.2022 11.2027 67.1742 11.464C67.1462 11.716 67.1322 12.0053 67.1322 12.332ZM73.3904 12.5C73.3904 11.912 73.4651 11.394 73.6144 10.946C73.7731 10.4887 73.9971 10.106 74.2864 9.798C74.5757 9.48067 74.9211 9.24267 75.3224 9.084C75.7331 8.916 76.1857 8.832 76.6804 8.832C77.2591 8.832 77.7584 8.92067 78.1784 9.098C78.5984 9.27533 78.9391 9.52733 79.2004 9.854C79.4711 10.1713 79.6671 10.554 79.7884 11.002C79.9191 11.45 79.9844 11.9493 79.9844 12.5C79.9844 13.676 79.6857 14.5813 79.0884 15.216C78.4911 15.8507 77.6884 16.168 76.6804 16.168C76.1204 16.168 75.6351 16.084 75.2244 15.916C74.8137 15.7387 74.4731 15.4913 74.2024 15.174C73.9317 14.8473 73.7264 14.46 73.5864 14.012C73.4557 13.5547 73.3904 13.0507 73.3904 12.5ZM74.7344 12.5C74.7344 12.92 74.7717 13.3167 74.8464 13.69C74.9304 14.0633 75.0564 14.39 75.2244 14.67C75.4017 14.9407 75.6304 15.1553 75.9104 15.314C76.1904 15.4727 76.5264 15.552 76.9184 15.552C77.4224 15.552 77.8331 15.3047 78.1504 14.81C78.4771 14.3153 78.6404 13.5453 78.6404 12.5C78.6404 12.0707 78.5984 11.674 78.5144 11.31C78.4397 10.9367 78.3184 10.6147 78.1504 10.344C77.9824 10.064 77.7677 9.84467 77.5064 9.686C77.2451 9.52733 76.9324 9.448 76.5684 9.448C76.0177 9.448 75.5744 9.69533 75.2384 10.19C74.9024 10.6847 74.7344 11.4547 74.7344 12.5ZM84.0967 18.8H80.9887V18.45C81.306 18.3007 81.614 18.1887 81.9127 18.114V9.812L80.9887 9.7V9.336C81.2874 9.20533 81.5907 9.10267 81.8987 9.028C82.216 8.944 82.524 8.87867 82.8227 8.832H83.1727V10.4H83.1867C83.3734 9.924 83.6347 9.546 83.9707 9.266C84.3067 8.97667 84.7454 8.832 85.2867 8.832C86.1174 8.832 86.7614 9.10733 87.2187 9.658C87.676 10.2087 87.9047 11.1047 87.9047 12.346C87.9047 12.934 87.8254 13.466 87.6667 13.942C87.5174 14.418 87.298 14.8193 87.0087 15.146C86.7287 15.4727 86.3834 15.7247 85.9727 15.902C85.5714 16.0793 85.1234 16.168 84.6287 16.168C84.2834 16.168 84.0127 16.1447 83.8167 16.098C83.6207 16.0607 83.406 15.9907 83.1727 15.888V18.114C83.322 18.1327 83.4714 18.1653 83.6207 18.212C83.77 18.268 83.9287 18.3473 84.0967 18.45V18.8ZM84.8387 9.7C84.3814 9.7 84.0174 9.84467 83.7467 10.134C83.476 10.4233 83.2847 10.82 83.1727 11.324V15.244C83.3407 15.3467 83.5274 15.426 83.7327 15.482C83.9474 15.5287 84.2227 15.552 84.5587 15.552C84.8667 15.552 85.142 15.4727 85.3847 15.314C85.6367 15.1553 85.8467 14.9313 86.0147 14.642C86.192 14.3527 86.3274 14.0167 86.4207 13.634C86.514 13.242 86.5607 12.8127 86.5607 12.346C86.5607 11.9633 86.528 11.6133 86.4627 11.296C86.4067 10.9693 86.3087 10.6893 86.1687 10.456C86.038 10.2133 85.8607 10.0267 85.6367 9.896C85.422 9.76533 85.156 9.7 84.8387 9.7ZM94.2244 14.166C94.2244 14.3713 94.229 14.5487 94.2384 14.698C94.2477 14.8473 94.257 15.006 94.2664 15.174L95.2324 15.314V15.608C94.999 15.7293 94.7377 15.8367 94.4484 15.93C94.1684 16.0233 93.8977 16.0933 93.6364 16.14H93.2864C93.193 15.9253 93.137 15.692 93.1184 15.44C93.0997 15.1787 93.0857 14.894 93.0764 14.586H93.0064C92.969 14.7727 92.8944 14.964 92.7824 15.16C92.6797 15.3467 92.5397 15.5147 92.3624 15.664C92.1944 15.8133 91.9937 15.9347 91.7604 16.028C91.527 16.1213 91.261 16.168 90.9624 16.168C90.393 16.168 89.9264 15.9953 89.5624 15.65C89.2077 15.3047 89.0304 14.852 89.0304 14.292C89.0304 13.8627 89.1144 13.5127 89.2824 13.242C89.4597 12.962 89.7164 12.7427 90.0524 12.584C90.3884 12.4253 90.8037 12.3133 91.2984 12.248C91.793 12.1733 92.367 12.1173 93.0204 12.08C93.0577 11.6787 93.067 11.3193 93.0484 11.002C93.039 10.6753 92.9877 10.4 92.8944 10.176C92.8104 9.94267 92.6797 9.76533 92.5024 9.644C92.3344 9.51333 92.1104 9.448 91.8304 9.448C91.6997 9.448 91.5504 9.45733 91.3824 9.476C91.2237 9.48533 91.065 9.52267 90.9064 9.588L90.2484 11.268H89.8844C89.791 10.988 89.707 10.6987 89.6324 10.4C89.567 10.1013 89.525 9.80733 89.5064 9.518C89.861 9.30333 90.253 9.13533 90.6824 9.014C91.121 8.89267 91.6064 8.832 92.1384 8.832C92.6144 8.832 92.9924 8.902 93.2724 9.042C93.5617 9.17267 93.781 9.34533 93.9304 9.56C94.0797 9.77467 94.1777 10.0127 94.2244 10.274C94.271 10.5353 94.2944 10.7967 94.2944 11.058C94.2944 11.618 94.2804 12.1593 94.2524 12.682C94.2337 13.1953 94.2244 13.69 94.2244 14.166ZM91.5224 15.3C91.7557 15.3 91.961 15.2533 92.1384 15.16C92.3157 15.0667 92.465 14.9547 92.5864 14.824C92.7077 14.6933 92.8057 14.5627 92.8804 14.432C92.955 14.292 93.0064 14.1753 93.0344 14.082V12.612C92.493 12.612 92.0497 12.64 91.7044 12.696C91.359 12.752 91.0884 12.8407 90.8924 12.962C90.6964 13.0833 90.561 13.2373 90.4864 13.424C90.4117 13.6013 90.3744 13.8067 90.3744 14.04C90.3744 14.4413 90.477 14.754 90.6824 14.978C90.8877 15.1927 91.1677 15.3 91.5224 15.3ZM100.579 16H97.4707V15.65C97.7601 15.5007 98.0681 15.3887 98.3947 15.314V9.616H97.0927L96.4767 11.296H96.1127C96.0661 10.8947 96.0287 10.5027 96.0007 10.12C95.9727 9.728 95.9541 9.35467 95.9447 9H102.105C102.095 9.336 102.077 9.70467 102.049 10.106C102.03 10.498 101.993 10.8947 101.937 11.296H101.573L100.957 9.616H99.6547V15.314C100.093 15.426 100.401 15.538 100.579 15.65V16ZM103.072 12.5C103.072 11.912 103.147 11.394 103.296 10.946C103.455 10.4887 103.679 10.106 103.968 9.798C104.257 9.48067 104.603 9.24267 105.004 9.084C105.415 8.916 105.867 8.832 106.362 8.832C106.941 8.832 107.44 8.92067 107.86 9.098C108.28 9.27533 108.621 9.52733 108.882 9.854C109.153 10.1713 109.349 10.554 109.47 11.002C109.601 11.45 109.666 11.9493 109.666 12.5C109.666 13.676 109.367 14.5813 108.77 15.216C108.173 15.8507 107.37 16.168 106.362 16.168C105.802 16.168 105.317 16.084 104.906 15.916C104.495 15.7387 104.155 15.4913 103.884 15.174C103.613 14.8473 103.408 14.46 103.268 14.012C103.137 13.5547 103.072 13.0507 103.072 12.5ZM104.416 12.5C104.416 12.92 104.453 13.3167 104.528 13.69C104.612 14.0633 104.738 14.39 104.906 14.67C105.083 14.9407 105.312 15.1553 105.592 15.314C105.872 15.4727 106.208 15.552 106.6 15.552C107.104 15.552 107.515 15.3047 107.832 14.81C108.159 14.3153 108.322 13.5453 108.322 12.5C108.322 12.0707 108.28 11.674 108.196 11.31C108.121 10.9367 108 10.6147 107.832 10.344C107.664 10.064 107.449 9.84467 107.188 9.686C106.927 9.52733 106.614 9.448 106.25 9.448C105.699 9.448 105.256 9.69533 104.92 10.19C104.584 10.6847 104.416 11.4547 104.416 12.5ZM113.778 18.8H110.67V18.45C110.988 18.3007 111.296 18.1887 111.594 18.114V9.812L110.67 9.7V9.336C110.969 9.20533 111.272 9.10267 111.58 9.028C111.898 8.944 112.206 8.87867 112.504 8.832H112.854V10.4H112.868C113.055 9.924 113.316 9.546 113.652 9.266C113.988 8.97667 114.427 8.832 114.968 8.832C115.799 8.832 116.443 9.10733 116.9 9.658C117.358 10.2087 117.586 11.1047 117.586 12.346C117.586 12.934 117.507 13.466 117.348 13.942C117.199 14.418 116.98 14.8193 116.69 15.146C116.41 15.4727 116.065 15.7247 115.654 15.902C115.253 16.0793 114.805 16.168 114.31 16.168C113.965 16.168 113.694 16.1447 113.498 16.098C113.302 16.0607 113.088 15.9907 112.854 15.888V18.114C113.004 18.1327 113.153 18.1653 113.302 18.212C113.452 18.268 113.61 18.3473 113.778 18.45V18.8ZM114.52 9.7C114.063 9.7 113.699 9.84467 113.428 10.134C113.158 10.4233 112.966 10.82 112.854 11.324V15.244C113.022 15.3467 113.209 15.426 113.414 15.482C113.629 15.5287 113.904 15.552 114.24 15.552C114.548 15.552 114.824 15.4727 115.066 15.314C115.318 15.1553 115.528 14.9313 115.696 14.642C115.874 14.3527 116.009 14.0167 116.102 13.634C116.196 13.242 116.242 12.8127 116.242 12.346C116.242 11.9633 116.21 11.6133 116.144 11.296C116.088 10.9693 115.99 10.6893 115.85 10.456C115.72 10.2133 115.542 10.0267 115.318 9.896C115.104 9.76533 114.838 9.7 114.52 9.7ZM118.712 9H121.68V9.364C121.577 9.42 121.456 9.476 121.316 9.532C121.185 9.588 121.027 9.644 120.84 9.7V13.536L120.686 14.838H120.756L121.302 13.788L124.298 9H126.188V9.364C125.889 9.532 125.581 9.644 125.264 9.7V15.314C125.441 15.3607 125.609 15.412 125.768 15.468C125.927 15.5147 126.067 15.5753 126.188 15.65V16H123.22V15.65C123.481 15.5007 123.761 15.3887 124.06 15.314V11.31L124.2 10.204H124.13L123.598 11.254L120.63 16H118.712V15.65C118.871 15.5753 119.025 15.5147 119.174 15.468C119.323 15.412 119.477 15.3607 119.636 15.314V9.7C119.272 9.644 118.964 9.532 118.712 9.364V9ZM127.634 11.058C127.634 10.7407 127.686 10.4513 127.788 10.19C127.891 9.92867 128.05 9.70467 128.264 9.518C128.488 9.33133 128.768 9.18667 129.104 9.084C129.45 8.972 129.865 8.916 130.35 8.916C130.462 8.916 130.616 8.92067 130.812 8.93C131.018 8.93933 131.232 8.94867 131.456 8.958C131.68 8.96733 131.895 8.97667 132.1 8.986C132.315 8.99533 132.483 9 132.604 9H133.612V9.364C133.538 9.42933 133.43 9.49 133.29 9.546C133.16 9.602 132.959 9.65333 132.688 9.7V15.314C133.034 15.4167 133.342 15.5287 133.612 15.65V16H130.602V15.65C130.724 15.5753 130.85 15.5147 130.98 15.468C131.12 15.412 131.27 15.3607 131.428 15.314V12.948L130.406 13.088C130.21 13.4147 129.991 13.8113 129.748 14.278C129.506 14.7353 129.174 15.202 128.754 15.678L128.32 16H126.738V15.65L127.522 15.314C127.942 14.8753 128.297 14.4413 128.586 14.012C128.876 13.5827 129.137 13.2187 129.37 12.92C129.156 12.8827 128.946 12.822 128.74 12.738C128.535 12.6447 128.348 12.5233 128.18 12.374C128.022 12.2153 127.891 12.0287 127.788 11.814C127.686 11.5993 127.634 11.3473 127.634 11.058ZM131.428 9.616C131.307 9.59733 131.148 9.57867 130.952 9.56C130.766 9.54133 130.607 9.532 130.476 9.532C129.898 9.52267 129.496 9.658 129.272 9.938C129.058 10.2087 128.95 10.568 128.95 11.016C128.95 11.4733 129.118 11.8513 129.454 12.15C129.8 12.4393 130.332 12.584 131.05 12.584H131.428V9.616ZM49.546 25H52.514V25.364C52.4113 25.42 52.29 25.476 52.15 25.532C52.0193 25.588 51.8607 25.644 51.674 25.7V29.536L51.52 30.838H51.59L52.136 29.788L55.132 25H57.022V25.364C56.7233 25.532 56.4153 25.644 56.098 25.7V31.314C56.2753 31.3607 56.4433 31.412 56.602 31.468C56.7607 31.5147 56.9007 31.5753 57.022 31.65V32H54.054V31.65C54.3153 31.5007 54.5953 31.3887 54.894 31.314V27.31L55.034 26.204H54.964L54.432 27.254L51.464 32H49.546V31.65C49.7047 31.5753 49.8587 31.5147 50.008 31.468C50.1573 31.412 50.3113 31.3607 50.47 31.314V25.7C50.106 25.644 49.798 25.532 49.546 25.364V25ZM61.1283 32H58.1183V31.65C58.2489 31.5753 58.3936 31.5147 58.5523 31.468C58.7109 31.412 58.8743 31.3607 59.0423 31.314V25.7C58.8743 25.6533 58.7109 25.6067 58.5523 25.56C58.3936 25.504 58.2489 25.4387 58.1183 25.364V25H61.1283V25.364C60.9136 25.4947 60.6383 25.6067 60.3023 25.7V28.15H63.4103V25.7C63.0836 25.644 62.8036 25.532 62.5703 25.364V25H65.5943V25.364C65.3423 25.5227 65.0343 25.6347 64.6703 25.7V31.314C64.8383 31.3513 65.0016 31.3933 65.1603 31.44C65.3189 31.4867 65.4636 31.5567 65.5943 31.65V32H62.5703V31.65C62.8036 31.482 63.0836 31.37 63.4103 31.314V28.766H60.3023V31.314C60.4889 31.3513 60.6476 31.398 60.7783 31.454C60.9089 31.51 61.0256 31.5753 61.1283 31.65V32ZM71.1705 32H68.0625V31.65C68.3519 31.5007 68.6599 31.3887 68.9865 31.314V25.616H67.6845L67.0685 27.296H66.7045C66.6579 26.8947 66.6205 26.5027 66.5925 26.12C66.5645 25.728 66.5459 25.3547 66.5365 25H72.6965C72.6872 25.336 72.6685 25.7047 72.6405 26.106C72.6219 26.498 72.5845 26.8947 72.5285 27.296H72.1645L71.5485 25.616H70.2465V31.314C70.6852 31.426 70.9932 31.538 71.1705 31.65V32ZM79.3338 31.02C79.2592 31.1787 79.1425 31.328 78.9838 31.468C78.8252 31.608 78.6432 31.7293 78.4378 31.832C78.2325 31.9347 78.0085 32.014 77.7658 32.07C77.5232 32.1353 77.2758 32.168 77.0238 32.168C76.4732 32.168 75.9878 32.084 75.5678 31.916C75.1478 31.7387 74.7978 31.4913 74.5178 31.174C74.2378 30.8473 74.0232 30.46 73.8738 30.012C73.7338 29.564 73.6638 29.06 73.6638 28.5C73.6638 27.3053 73.9392 26.3953 74.4898 25.77C75.0405 25.1447 75.8198 24.832 76.8278 24.832C77.1545 24.832 77.4765 24.8787 77.7938 24.972C78.1112 25.056 78.3912 25.2007 78.6338 25.406C78.8858 25.6113 79.0865 25.8867 79.2358 26.232C79.3945 26.568 79.4738 26.988 79.4738 27.492C79.4738 27.6507 79.4645 27.814 79.4458 27.982C79.4365 28.1407 79.4132 28.3133 79.3758 28.5H75.0078C75.0078 28.892 75.0545 29.2607 75.1478 29.606C75.2505 29.942 75.3998 30.236 75.5958 30.488C75.7918 30.74 76.0392 30.9407 76.3378 31.09C76.6365 31.23 76.9865 31.3 77.3878 31.3C77.7145 31.3 78.0458 31.2533 78.3818 31.16C78.7178 31.0667 78.9698 30.9453 79.1378 30.796L79.3338 31.02ZM76.7718 25.448C76.2398 25.448 75.8338 25.63 75.5538 25.994C75.2738 26.3487 75.1058 26.9787 75.0498 27.884H78.1298C78.1392 27.8 78.1438 27.7207 78.1438 27.646C78.1532 27.562 78.1578 27.4827 78.1578 27.408C78.1578 26.8107 78.0458 26.3347 77.8218 25.98C77.5978 25.6253 77.2478 25.448 76.7718 25.448ZM83.6729 34.8H80.5649V34.45C80.8822 34.3007 81.1902 34.1887 81.4889 34.114V25.812L80.5649 25.7V25.336C80.8635 25.2053 81.1669 25.1027 81.4749 25.028C81.7922 24.944 82.1002 24.8787 82.3989 24.832H82.7489V26.4H82.7629C82.9495 25.924 83.2109 25.546 83.5469 25.266C83.8829 24.9767 84.3215 24.832 84.8629 24.832C85.6935 24.832 86.3375 25.1073 86.7949 25.658C87.2522 26.2087 87.4809 27.1047 87.4809 28.346C87.4809 28.934 87.4015 29.466 87.2429 29.942C87.0935 30.418 86.8742 30.8193 86.5849 31.146C86.3049 31.4727 85.9595 31.7247 85.5489 31.902C85.1475 32.0793 84.6995 32.168 84.2049 32.168C83.8595 32.168 83.5889 32.1447 83.3929 32.098C83.1969 32.0607 82.9822 31.9907 82.7489 31.888V34.114C82.8982 34.1327 83.0475 34.1653 83.1969 34.212C83.3462 34.268 83.5049 34.3473 83.6729 34.45V34.8ZM84.4149 25.7C83.9575 25.7 83.5935 25.8447 83.3229 26.134C83.0522 26.4233 82.8609 26.82 82.7489 27.324V31.244C82.9169 31.3467 83.1035 31.426 83.3089 31.482C83.5235 31.5287 83.7989 31.552 84.1349 31.552C84.4429 31.552 84.7182 31.4727 84.9609 31.314C85.2129 31.1553 85.4229 30.9313 85.5909 30.642C85.7682 30.3527 85.9035 30.0167 85.9969 29.634C86.0902 29.242 86.1369 28.8127 86.1369 28.346C86.1369 27.9633 86.1042 27.6133 86.0389 27.296C85.9829 26.9693 85.8849 26.6893 85.7449 26.456C85.6142 26.2133 85.4369 26.0267 85.2129 25.896C84.9982 25.7653 84.7322 25.7 84.4149 25.7ZM91.6165 32H88.6065V31.65C88.7372 31.5753 88.8819 31.5147 89.0405 31.468C89.1992 31.412 89.3625 31.3607 89.5305 31.314V25.7C89.3625 25.6533 89.1992 25.6067 89.0405 25.56C88.8819 25.504 88.7372 25.4387 88.6065 25.364V25H91.6165V25.364C91.4019 25.4947 91.1265 25.6067 90.7905 25.7V28.15H93.8985V25.7C93.5719 25.644 93.2919 25.532 93.0585 25.364V25H96.0825V25.364C95.8305 25.5227 95.5225 25.6347 95.1585 25.7V31.314C95.3265 31.3513 95.4899 31.3933 95.6485 31.44C95.8072 31.4867 95.9519 31.5567 96.0825 31.65V32H93.0585V31.65C93.2919 31.482 93.5719 31.37 93.8985 31.314V28.766H90.7905V31.314C90.9772 31.3513 91.1359 31.398 91.2665 31.454C91.3972 31.51 91.5139 31.5753 91.6165 31.65V32ZM102.877 31.02C102.802 31.1787 102.685 31.328 102.527 31.468C102.368 31.608 102.186 31.7293 101.981 31.832C101.775 31.9347 101.551 32.014 101.309 32.07C101.066 32.1353 100.819 32.168 100.567 32.168C100.016 32.168 99.5308 32.084 99.1108 31.916C98.6908 31.7387 98.3408 31.4913 98.0608 31.174C97.7808 30.8473 97.5661 30.46 97.4168 30.012C97.2768 29.564 97.2068 29.06 97.2068 28.5C97.2068 27.3053 97.4821 26.3953 98.0328 25.77C98.5835 25.1447 99.3628 24.832 100.371 24.832C100.697 24.832 101.019 24.8787 101.337 24.972C101.654 25.056 101.934 25.2007 102.177 25.406C102.429 25.6113 102.629 25.8867 102.779 26.232C102.937 26.568 103.017 26.988 103.017 27.492C103.017 27.6507 103.007 27.814 102.989 27.982C102.979 28.1407 102.956 28.3133 102.919 28.5H98.5508C98.5508 28.892 98.5975 29.2607 98.6908 29.606C98.7935 29.942 98.9428 30.236 99.1388 30.488C99.3348 30.74 99.5821 30.9407 99.8808 31.09C100.179 31.23 100.529 31.3 100.931 31.3C101.257 31.3 101.589 31.2533 101.925 31.16C102.261 31.0667 102.513 30.9453 102.681 30.796L102.877 31.02ZM100.315 25.448C99.7828 25.448 99.3768 25.63 99.0968 25.994C98.8168 26.3487 98.6488 26.9787 98.5928 27.884H101.673C101.682 27.8 101.687 27.7207 101.687 27.646C101.696 27.562 101.701 27.4827 101.701 27.408C101.701 26.8107 101.589 26.3347 101.365 25.98C101.141 25.6253 100.791 25.448 100.315 25.448ZM108.7 32H105.592V31.65C105.881 31.5007 106.189 31.3887 106.516 31.314V25.616H105.214L104.598 27.296H104.234C104.187 26.8947 104.15 26.5027 104.122 26.12C104.094 25.728 104.075 25.3547 104.066 25H110.226C110.216 25.336 110.198 25.7047 110.17 26.106C110.151 26.498 110.114 26.8947 110.058 27.296H109.694L109.078 25.616H107.776V31.314C108.214 31.426 108.522 31.538 108.7 31.65V32Z" fill="black"/>
<path d="M36.5073 27.4119C35.5835 26.488 34.3052 25.9153 32.8939 25.9153C32.586 25.9153 32.2856 25.944 31.9944 25.9997C31.4012 26.1098 30.8442 26.3236 30.334 26.6101C24.8009 29.721 20.6758 30.0723 19.0261 30.0723C19.008 30.0723 18.9915 30.0723 18.9748 30.0723C17.6102 30.0723 14.5376 29.8065 10.3947 27.9668C10.3518 28.3733 10.3166 28.7947 10.2857 29.2238C10.2486 29.7987 10.2139 30.3785 10.2072 31.0037C10.198 31.8732 9.9973 32.755 9.5295 33.5644C9.16575 34.193 8.6888 34.7158 8.13941 35.1213C7.93508 35.2712 7.70812 35.3792 7.48596 35.4963C7.54322 35.4666 7.60935 35.4527 7.66548 35.4213C13.1986 32.3105 17.3237 31.9577 18.9748 31.9577C18.9915 31.9577 19.008 31.9577 19.0261 31.9577C20.6758 31.9577 24.8009 32.3105 30.334 35.4213C30.8442 35.7076 31.4012 35.9216 31.9944 36.0317C32.2856 36.0859 32.586 36.1145 32.8939 36.1145C34.3052 36.1145 35.5835 35.5434 36.5073 34.6193C37.4295 33.6955 38 32.4219 38 31.0142C38 29.608 37.4295 28.3344 36.5073 27.4119Z" fill="#1BB7E0"/>
<path opacity="0.35" d="M36.5073 27.4119C35.5835 26.488 34.3052 25.9153 32.8939 25.9153C32.586 25.9153 32.2856 25.944 31.9944 25.9997C31.4012 26.1098 30.8442 26.3236 30.334 26.6101C24.8009 29.721 20.6758 30.0723 19.0261 30.0723C19.008 30.0723 18.9915 30.0723 18.9748 30.0723C17.6102 30.0723 14.5376 29.8065 10.3947 27.9668C10.3518 28.3733 10.3166 28.7947 10.2857 29.2238C10.2486 29.7987 10.2139 30.3785 10.2072 31.0037C10.198 31.8732 9.9973 32.755 9.5295 33.5644C9.16575 34.193 8.6888 34.7158 8.13941 35.1213C7.93508 35.2712 7.70812 35.3792 7.48596 35.4963C7.54322 35.4666 7.60935 35.4527 7.66548 35.4213C13.1986 32.3105 17.3237 31.9577 18.9748 31.9577C18.9915 31.9577 19.008 31.9577 19.0261 31.9577C20.6758 31.9577 24.8009 32.3105 30.334 35.4213C30.8442 35.7076 31.4012 35.9216 31.9944 36.0317C32.2856 36.0859 32.586 36.1145 32.8939 36.1145C34.3052 36.1145 35.5835 35.5434 36.5073 34.6193C37.4295 33.6955 38 32.4219 38 31.0142C38 29.608 37.4295 28.3344 36.5073 27.4119Z" fill="url(#paint0_linear)"/>
<path d="M16.4588 11.4011C16.086 11.1811 15.7344 10.9188 15.4189 10.6115C15.0973 10.2994 14.8122 9.94217 14.5766 9.53523C14.0875 8.68695 13.8854 7.75889 13.9103 6.84863C13.9085 6.89762 13.9009 6.9467 13.9004 6.99559C13.8326 13.3364 12.0742 17.0788 11.2501 18.5061C11.241 18.5213 11.2334 18.5349 11.2245 18.5513C10.6585 19.5311 9.36348 21.4376 6.83837 23.5809C5.68675 24.5591 4.27845 25.587 2.56687 26.5984C2.17605 26.8305 1.80768 27.1078 1.47713 27.4362C1.17687 27.7363 0.908211 28.0785 0.686245 28.4643C0.120246 29.441 -0.0849285 30.5261 0.0312899 31.5661C0.200335 33.1261 1.08782 34.5866 2.55329 35.4321C2.95033 35.6612 3.36399 35.83 3.7865 35.9431C5.29432 36.3469 6.90016 36.0304 8.13941 35.1216C8.68881 34.716 9.16576 34.1932 9.52951 33.5647C9.9973 32.7553 10.198 31.8734 10.2072 31.004C10.275 24.6632 12.0334 20.9192 12.8591 19.4934C12.8681 19.4783 12.8756 19.4632 12.8847 19.4496C13.4944 18.3932 14.9494 16.2619 17.8776 13.9183C18.2206 13.643 18.6157 13.3625 19.0003 13.0829C18.2305 12.524 17.4069 11.9614 16.4588 11.4011Z" fill="#E22B46"/>
<path opacity="0.35" d="M16.4588 11.4011C16.086 11.1811 15.7344 10.9188 15.4189 10.6115C15.0973 10.2994 14.8122 9.94217 14.5766 9.53523C14.0875 8.68695 13.8854 7.75889 13.9103 6.84863C13.9085 6.89762 13.9009 6.9467 13.9004 6.99559C13.8326 13.3364 12.0742 17.0788 11.2501 18.5061C11.241 18.5213 11.2334 18.5349 11.2245 18.5513C10.6585 19.5311 9.36348 21.4376 6.83837 23.5809C5.68675 24.5591 4.27845 25.587 2.56687 26.5984C2.17605 26.8305 1.80768 27.1078 1.47713 27.4362C1.17687 27.7363 0.908211 28.0785 0.686245 28.4643C0.120246 29.441 -0.0849285 30.5261 0.0312899 31.5661C0.200335 33.1261 1.08782 34.5866 2.55329 35.4321C2.95033 35.6612 3.36399 35.83 3.7865 35.9431C5.29432 36.3469 6.90016 36.0304 8.13941 35.1216C8.68881 34.716 9.16576 34.1932 9.52951 33.5647C9.9973 32.7553 10.198 31.8734 10.2072 31.004C10.275 24.6632 12.0334 20.9192 12.8591 19.4934C12.8681 19.4783 12.8756 19.4632 12.8847 19.4496C13.4944 18.3932 14.9494 16.2619 17.8776 13.9183C18.2206 13.643 18.6157 13.3625 19.0003 13.0829C18.2305 12.524 17.4069 11.9614 16.4588 11.4011Z" fill="url(#paint1_linear)"/>
<path d="M15.4191 10.6113C15.7345 10.9187 16.0862 11.181 16.459 11.401C21.9228 14.6295 24.2909 18.0208 25.1165 19.4495C25.1255 19.4631 25.1331 19.4781 25.1407 19.4933C25.8232 20.6718 27.1284 23.4629 27.6045 27.9672C28.4742 27.581 29.374 27.15 30.3342 26.6102C30.8443 26.3238 31.4014 26.1099 31.9945 25.9998C32.2857 25.9441 32.5862 25.9154 32.8941 25.9154C33.8668 25.9154 34.767 26.2023 35.5409 26.6741C35.5035 26.651 35.4706 26.6205 35.4328 26.5983C29.9689 23.3698 27.6009 19.977 26.7753 18.5512C26.7676 18.5347 26.7587 18.5212 26.7511 18.506C25.9255 17.0787 24.1671 13.3363 24.1006 6.99696C24.0962 6.56439 24.0433 6.13041 23.9362 5.70378C23.826 5.2697 23.6585 4.84165 23.4215 4.43471C22.7166 3.21538 21.5831 2.39697 20.3213 2.05945C19.1139 1.7353 17.7857 1.85296 16.6039 2.47986C15.3602 3.14153 14.432 4.30368 14.0667 5.66308C13.7286 6.92311 13.872 8.31275 14.5768 9.53509C14.8123 9.94204 15.0975 10.2992 15.4191 10.6113Z" fill="#68CE46"/>
<path opacity="0.35" d="M15.4191 10.6113C15.7345 10.9187 16.0862 11.181 16.459 11.401C21.9228 14.6295 24.2909 18.0208 25.1165 19.4495C25.1255 19.4631 25.1331 19.4781 25.1407 19.4933C25.8232 20.6718 27.1284 23.4629 27.6045 27.9672C28.4742 27.581 29.374 27.15 30.3342 26.6102C30.8443 26.3238 31.4014 26.1099 31.9945 25.9998C32.2857 25.9441 32.5862 25.9154 32.8941 25.9154C33.8668 25.9154 34.767 26.2023 35.5409 26.6741C35.5035 26.651 35.4706 26.6205 35.4328 26.5983C29.9689 23.3698 27.6009 19.977 26.7753 18.5512C26.7676 18.5347 26.7587 18.5212 26.7511 18.506C25.9255 17.0787 24.1671 13.3363 24.1006 6.99696C24.0962 6.56439 24.0433 6.13041 23.9362 5.70378C23.826 5.2697 23.6585 4.84165 23.4215 4.43471C22.7166 3.21538 21.5831 2.39697 20.3213 2.05945C19.1139 1.7353 17.7857 1.85296 16.6039 2.47986C15.3602 3.14153 14.432 4.30368 14.0667 5.66308C13.7286 6.92311 13.872 8.31275 14.5768 9.53509C14.8123 9.94204 15.0975 10.2992 15.4191 10.6113Z" fill="url(#paint2_linear)"/>
<defs>
<linearGradient id="paint0_linear" x1="25.1018" y1="39.2757" x2="19.755" y2="24.5647" gradientUnits="userSpaceOnUse">
<stop stop-color="#004854" stop-opacity="0"/>
<stop offset="1" stop-color="#004854"/>
</linearGradient>
<linearGradient id="paint1_linear" x1="1.51969e-07" y1="21.4822" x2="19.0003" y2="21.4822" gradientUnits="userSpaceOnUse">
<stop stop-color="#6D000D" stop-opacity="0"/>
<stop offset="1" stop-color="#6D000D"/>
</linearGradient>
<linearGradient id="paint2_linear" x1="29.8709" y1="10.6277" x2="20.0695" y2="20.4429" gradientUnits="userSpaceOnUse">
<stop stop-opacity="0"/>
<stop offset="1"/>
</linearGradient>
</defs>
</svg>
