<svg width="16" height="16" viewBox="0 0 16 16" fill="none" xmlns="http://www.w3.org/2000/svg">
<g clip-path="url(#clip0)">
<path d="M7.99999 11.3033C10.3518 11.3033 12.2583 9.39674 12.2583 7.04494C12.2583 4.69313 10.3518 2.78662 7.99999 2.78662C5.64819 2.78662 3.74168 4.69313 3.74168 7.04494C3.74168 9.39674 5.64819 11.3033 7.99999 11.3033Z" fill="#008BFF"/>
<path d="M13.0037 2.07258C11.6672 0.736063 9.89015 0 7.99999 0C6.10983 0 4.3328 0.736063 2.99628 2.07258C1.65974 3.40916 0.923676 5.18616 0.923676 7.07632C0.923676 10.4109 3.25491 13.2898 6.49352 13.9914L7.99999 16L9.5065 13.9913C12.7451 13.2898 15.0763 10.4109 15.0763 7.07632C15.0763 5.18616 14.3402 3.40916 13.0037 2.07258ZM7.99999 1.84736C10.866 1.84736 13.1976 4.17904 13.1976 7.04501C13.1976 9.91098 10.866 12.2427 7.99999 12.2427C5.13399 12.2427 2.80234 9.91098 2.80234 7.04501C2.80234 4.17904 5.13399 1.84736 7.99999 1.84736Z" fill="#008BFF"/>
</g>
<defs>
<clipPath id="clip0">
<rect width="16" height="16" fill="white"/>
</clipPath>
</defs>
</svg>
