<svg width="111" height="33" viewBox="0 0 111 33" fill="none" xmlns="http://www.w3.org/2000/svg">
<path d="M43.056 6.27743C42.5753 6.19989 42.1799 6.08359 41.8697 5.92851V5.59122H47.9874V5.92851C47.7161 6.06808 47.3982 6.165 47.0337 6.21928V13.1163C47.3982 13.1783 47.7161 13.2713 47.9874 13.3954V13.7327H45.0333V13.3954C45.1728 13.3334 45.3163 13.283 45.4636 13.2442C45.6109 13.1977 45.7621 13.155 45.9172 13.1163V6.19602H43.7422C43.7112 7.41336 43.6531 8.42523 43.5678 9.23162C43.4902 10.0303 43.3895 10.6932 43.2654 11.2205C43.1413 11.74 42.9979 12.1548 42.8351 12.465C42.68 12.7751 42.5094 13.0504 42.3233 13.2907C42.1682 13.4923 41.9783 13.6397 41.7534 13.7327C41.5285 13.8257 41.3114 13.8723 41.1021 13.8723C41.0478 13.8102 40.9897 13.7249 40.9276 13.6164C40.8733 13.5001 40.8191 13.3799 40.7648 13.2558C40.7183 13.124 40.6795 12.9961 40.6485 12.872C40.6175 12.7402 40.5981 12.6239 40.5903 12.5231L40.7648 12.2323L42.1023 12.4766C42.2186 12.2827 42.3311 12.0269 42.4396 11.709C42.5559 11.3911 42.6567 10.9879 42.742 10.4994C42.8351 10.0031 42.9087 9.40996 42.963 8.71987C43.025 8.02979 43.056 7.21564 43.056 6.27743Z" fill="white"/>
<path d="M53.0965 12.2091C53.0965 12.3797 53.1004 12.527 53.1081 12.651C53.1159 12.7751 53.1236 12.9069 53.1314 13.0465L53.9339 13.1628V13.407C53.7401 13.5078 53.523 13.597 53.2826 13.6745C53.05 13.7521 52.8251 13.8102 52.608 13.849H52.3172C52.2397 13.6707 52.1932 13.4768 52.1777 13.2675C52.1622 13.0504 52.1505 12.8139 52.1428 12.558H52.0846C52.0536 12.7131 51.9916 12.872 51.8985 13.0349C51.8132 13.1899 51.6969 13.3295 51.5496 13.4536C51.41 13.5776 51.2433 13.6784 51.0495 13.756C50.8557 13.8335 50.6347 13.8723 50.3865 13.8723C49.9136 13.8723 49.5259 13.7288 49.2235 13.4419C48.9288 13.155 48.7815 12.779 48.7815 12.3138C48.7815 11.9571 48.8513 11.6663 48.9909 11.4415C49.1382 11.2088 49.3514 11.0266 49.6306 10.8948C49.9097 10.763 50.2547 10.67 50.6657 10.6157C51.0766 10.5536 51.5535 10.5071 52.0963 10.4761C52.1273 10.1427 52.135 9.84417 52.1195 9.58054C52.1118 9.30916 52.0691 9.08043 51.9916 8.89433C51.9218 8.70049 51.8132 8.55317 51.6659 8.45237C51.5264 8.34382 51.3403 8.28954 51.1077 8.28954C50.9991 8.28954 50.875 8.29729 50.7355 8.3128C50.6037 8.32055 50.4718 8.35157 50.34 8.40585L49.7934 9.80153H49.491C49.4134 9.56891 49.3437 9.32855 49.2816 9.08043C49.2274 8.8323 49.1925 8.58806 49.177 8.34769C49.4716 8.16935 49.7973 8.02979 50.1539 7.92899C50.5184 7.82819 50.9216 7.77779 51.3635 7.77779C51.759 7.77779 52.073 7.83594 52.3056 7.95225C52.546 8.0608 52.7282 8.20425 52.8523 8.38258C52.9763 8.56092 53.0577 8.75864 53.0965 8.97575C53.1353 9.19286 53.1547 9.40996 53.1547 9.62707C53.1547 10.0923 53.143 10.542 53.1198 10.9762C53.1043 11.4027 53.0965 11.8136 53.0965 12.2091ZM50.8518 13.1512C51.0456 13.1512 51.2162 13.1124 51.3635 13.0349C51.5108 12.9573 51.6349 12.8643 51.7357 12.7557C51.8365 12.6472 51.9179 12.5386 51.98 12.4301C52.042 12.3138 52.0846 12.2168 52.1079 12.1393V10.9181C51.6582 10.9181 51.2899 10.9413 51.003 10.9879C50.7161 11.0344 50.4912 11.108 50.3284 11.2088C50.1656 11.3096 50.0531 11.4376 49.9911 11.5927C49.9291 11.74 49.8981 11.9106 49.8981 12.1044C49.8981 12.4378 49.9834 12.6976 50.1539 12.8837C50.3245 13.062 50.5571 13.1512 50.8518 13.1512Z" fill="white"/>
<path d="M54.6769 10.6855C54.6769 9.69297 54.7583 8.86332 54.9212 8.19649C55.084 7.52191 55.3282 6.98302 55.6539 6.57983C55.9873 6.16888 56.406 5.87811 56.91 5.70753C57.414 5.53694 58.0033 5.45165 58.6779 5.45165L59.4339 4.87012H59.7363C59.7285 5.00969 59.713 5.16088 59.6897 5.32371C59.6665 5.47879 59.6355 5.62999 59.5967 5.77731C59.5657 5.91688 59.5308 6.04094 59.492 6.14949C59.461 6.25805 59.4339 6.33558 59.4106 6.38211C58.6972 6.38211 58.0925 6.417 57.5962 6.48678C57.1 6.55657 56.689 6.70001 56.3634 6.91712C56.0377 7.13422 55.7896 7.44825 55.619 7.8592C55.4562 8.27015 55.3476 8.81292 55.2933 9.4875H55.3515C55.4445 9.2859 55.5686 9.09206 55.7237 8.90596C55.8865 8.71987 56.0687 8.55704 56.2703 8.41748C56.4797 8.27791 56.7006 8.16548 56.9333 8.08019C57.1659 7.99489 57.4024 7.95225 57.6427 7.95225C59.2245 7.95225 60.0154 8.90209 60.0154 10.8018C60.0154 11.2515 59.9534 11.6663 59.8293 12.0463C59.7052 12.4184 59.523 12.7402 59.2827 13.0116C59.0423 13.283 58.7515 13.4962 58.4104 13.6513C58.0692 13.7986 57.6854 13.8723 57.2589 13.8723C56.8712 13.8723 56.5184 13.8025 56.2005 13.6629C55.8826 13.5156 55.6112 13.3062 55.3864 13.0349C55.1615 12.7557 54.9871 12.4223 54.863 12.0346C54.7389 11.6392 54.6769 11.1895 54.6769 10.6855ZM55.7702 10.6855C55.7702 11.1739 55.8128 11.5888 55.8981 11.9299C55.9912 12.2634 56.1152 12.5386 56.2703 12.7557C56.4254 12.9651 56.6037 13.1201 56.8053 13.2209C57.0147 13.314 57.2318 13.3605 57.4566 13.3605C57.9219 13.3605 58.2708 13.1512 58.5034 12.7325C58.7438 12.3138 58.864 11.7167 58.864 10.9413C58.864 10.1504 58.7128 9.57279 58.4104 9.20836C58.108 8.84393 57.6893 8.66172 57.1542 8.66172C56.9526 8.66172 56.7317 8.72375 56.4913 8.84781C56.2587 8.97187 56.061 9.13858 55.8981 9.34793C55.8594 9.54178 55.8283 9.74725 55.8051 9.96436C55.7818 10.1737 55.7702 10.4141 55.7702 10.6855Z" fill="white"/>
<path d="M60.9693 10.825C60.9693 10.3365 61.0313 9.9062 61.1554 9.53402C61.2872 9.15409 61.4733 8.83618 61.7137 8.58031C61.954 8.31668 62.2409 8.11896 62.5743 7.98714C62.9155 7.84757 63.2915 7.77779 63.7025 7.77779C64.1832 7.77779 64.5981 7.85145 64.947 7.99877C65.2959 8.14609 65.5789 8.35545 65.796 8.62683C66.0209 8.89046 66.1837 9.20836 66.2845 9.58054C66.3931 9.95273 66.4473 10.3676 66.4473 10.825C66.4473 11.802 66.1992 12.5541 65.703 13.0814C65.2067 13.6086 64.5399 13.8723 63.7025 13.8723C63.2373 13.8723 62.8341 13.8025 62.4929 13.6629C62.1517 13.5156 61.8687 13.3101 61.6439 13.0465C61.419 12.7751 61.2484 12.4533 61.1321 12.0811C61.0236 11.7012 60.9693 11.2825 60.9693 10.825ZM62.0858 10.825C62.0858 11.1739 62.1168 11.5035 62.1789 11.8136C62.2487 12.1238 62.3533 12.3952 62.4929 12.6278C62.6402 12.8526 62.8302 13.031 63.0628 13.1628C63.2954 13.2946 63.5746 13.3605 63.9002 13.3605C64.3189 13.3605 64.6601 13.155 64.9237 12.7441C65.1951 12.3331 65.3308 11.6935 65.3308 10.825C65.3308 10.4684 65.2959 10.1388 65.2261 9.83642C65.1641 9.52627 65.0633 9.25876 64.9237 9.0339C64.7842 8.80129 64.6058 8.61907 64.3887 8.48726C64.1716 8.35545 63.9119 8.28954 63.6095 8.28954C63.152 8.28954 62.7837 8.49501 62.5045 8.90596C62.2254 9.31692 62.0858 9.9566 62.0858 10.825Z" fill="white"/>
<path d="M69.8637 16.0588H67.2817V15.7681C67.5453 15.644 67.8012 15.551 68.0493 15.4889V8.59194L67.2817 8.49889V8.19649C67.5298 8.08794 67.7818 8.00265 68.0377 7.94062C68.3013 7.87083 68.5572 7.81656 68.8053 7.77779H69.096V9.08043H69.1077C69.2628 8.68498 69.4799 8.37095 69.759 8.13834C70.0381 7.89797 70.4026 7.77779 70.8523 7.77779C71.5424 7.77779 72.0774 8.00653 72.4573 8.464C72.8373 8.92147 73.0272 9.66584 73.0272 10.6971C73.0272 11.1856 72.9613 11.6275 72.8295 12.023C72.7054 12.4184 72.5232 12.7518 72.2829 13.0232C72.0502 13.2946 71.7634 13.504 71.4222 13.6513C71.0888 13.7986 70.7166 13.8723 70.3056 13.8723C70.0188 13.8723 69.7939 13.8529 69.6311 13.8141C69.4682 13.7831 69.2899 13.7249 69.096 13.6397V15.4889C69.2201 15.5044 69.3442 15.5316 69.4682 15.5703C69.5923 15.6169 69.7241 15.6828 69.8637 15.7681V16.0588ZM70.4801 8.49889C70.1002 8.49889 69.7978 8.61907 69.5729 8.85944C69.348 9.09981 69.1891 9.42935 69.096 9.84805V13.1046C69.2356 13.1899 69.3907 13.2558 69.5613 13.3024C69.7396 13.3411 69.9684 13.3605 70.2475 13.3605C70.5034 13.3605 70.7321 13.2946 70.9337 13.1628C71.143 13.031 71.3175 12.8449 71.4571 12.6045C71.6044 12.3642 71.7168 12.085 71.7944 11.7671C71.8719 11.4415 71.9107 11.0848 71.9107 10.6971C71.9107 10.3792 71.8835 10.0884 71.8293 9.82479C71.7827 9.55341 71.7013 9.32079 71.585 9.12695C71.4765 8.92535 71.3291 8.77027 71.143 8.66172C70.9647 8.55317 70.7437 8.49889 70.4801 8.49889Z" fill="white"/>
<path d="M78.2774 12.2091C78.2774 12.3797 78.2813 12.527 78.289 12.651C78.2968 12.7751 78.3045 12.9069 78.3123 13.0465L79.1148 13.1628V13.407C78.9209 13.5078 78.7038 13.597 78.4635 13.6745C78.2309 13.7521 78.006 13.8102 77.7889 13.849H77.4981C77.4206 13.6707 77.3741 13.4768 77.3586 13.2675C77.3431 13.0504 77.3314 12.8139 77.3237 12.558H77.2655C77.2345 12.7131 77.1725 12.872 77.0794 13.0349C76.9941 13.1899 76.8778 13.3295 76.7305 13.4536C76.5909 13.5776 76.4242 13.6784 76.2304 13.756C76.0365 13.8335 75.8156 13.8723 75.5674 13.8723C75.0945 13.8723 74.7068 13.7288 74.4044 13.4419C74.1097 13.155 73.9624 12.779 73.9624 12.3138C73.9624 11.9571 74.0322 11.6663 74.1718 11.4415C74.3191 11.2088 74.5323 11.0266 74.8114 10.8948C75.0906 10.763 75.4356 10.67 75.8466 10.6157C76.2575 10.5536 76.7344 10.5071 77.2771 10.4761C77.3082 10.1427 77.3159 9.84417 77.3004 9.58054C77.2927 9.30916 77.25 9.08043 77.1725 8.89433C77.1027 8.70049 76.9941 8.55317 76.8468 8.45237C76.7072 8.34382 76.5211 8.28954 76.2885 8.28954C76.18 8.28954 76.0559 8.29729 75.9164 8.3128C75.7845 8.32055 75.6527 8.35157 75.5209 8.40585L74.9743 9.80153H74.6719C74.5943 9.56891 74.5245 9.32855 74.4625 9.08043C74.4082 8.8323 74.3733 8.58806 74.3578 8.34769C74.6525 8.16935 74.9781 8.02979 75.3348 7.92899C75.6992 7.82819 76.1024 7.77779 76.5444 7.77779C76.9399 7.77779 77.2539 7.83594 77.4865 7.95225C77.7269 8.0608 77.9091 8.20425 78.0331 8.38258C78.1572 8.56092 78.2386 8.75864 78.2774 8.97575C78.3162 9.19286 78.3355 9.40996 78.3355 9.62707C78.3355 10.0923 78.3239 10.542 78.3006 10.9762C78.2851 11.4027 78.2774 11.8136 78.2774 12.2091ZM76.0327 13.1512C76.2265 13.1512 76.3971 13.1124 76.5444 13.0349C76.6917 12.9573 76.8158 12.8643 76.9166 12.7557C77.0174 12.6472 77.0988 12.5386 77.1608 12.4301C77.2229 12.3138 77.2655 12.2168 77.2888 12.1393V10.9181C76.8391 10.9181 76.4708 10.9413 76.1839 10.9879C75.897 11.0344 75.6721 11.108 75.5093 11.2088C75.3465 11.3096 75.234 11.4376 75.172 11.5927C75.11 11.74 75.0789 11.9106 75.0789 12.1044C75.0789 12.4378 75.1642 12.6976 75.3348 12.8837C75.5054 13.062 75.738 13.1512 76.0327 13.1512Z" fill="white"/>
<path d="M83.5564 13.7327H80.9743V13.4419C81.2147 13.3179 81.4706 13.2248 81.742 13.1628V8.42911H80.6603L80.1486 9.82479H79.8462C79.8074 9.49138 79.7764 9.16572 79.7531 8.84781C79.7299 8.52215 79.7144 8.212 79.7066 7.91736H84.8241C84.8163 8.19649 84.8008 8.50277 84.7776 8.83618C84.7621 9.16184 84.7311 9.49138 84.6845 9.82479H84.3821L83.8704 8.42911H82.7887V13.1628C83.1532 13.2558 83.409 13.3489 83.5564 13.4419V13.7327Z" fill="white"/>
<path d="M85.6277 10.825C85.6277 10.3365 85.6897 9.9062 85.8138 9.53402C85.9456 9.15409 86.1317 8.83618 86.3721 8.58031C86.6124 8.31668 86.8993 8.11896 87.2327 7.98714C87.5739 7.84757 87.95 7.77779 88.3609 7.77779C88.8417 7.77779 89.2565 7.85145 89.6054 7.99877C89.9543 8.14609 90.2373 8.35545 90.4544 8.62683C90.6793 8.89046 90.8421 9.20836 90.9429 9.58054C91.0515 9.95273 91.1058 10.3676 91.1058 10.825C91.1058 11.802 90.8576 12.5541 90.3614 13.0814C89.8651 13.6086 89.1983 13.8723 88.3609 13.8723C87.8957 13.8723 87.4925 13.8025 87.1513 13.6629C86.8102 13.5156 86.5271 13.3101 86.3023 13.0465C86.0774 12.7751 85.9068 12.4533 85.7905 12.0811C85.682 11.7012 85.6277 11.2825 85.6277 10.825ZM86.7442 10.825C86.7442 11.1739 86.7753 11.5035 86.8373 11.8136C86.9071 12.1238 87.0118 12.3952 87.1513 12.6278C87.2986 12.8526 87.4886 13.031 87.7212 13.1628C87.9538 13.2946 88.233 13.3605 88.5586 13.3605C88.9773 13.3605 89.3185 13.155 89.5821 12.7441C89.8535 12.3331 89.9892 11.6935 89.9892 10.825C89.9892 10.4684 89.9543 10.1388 89.8845 9.83642C89.8225 9.52627 89.7217 9.25876 89.5821 9.0339C89.4426 8.80129 89.2642 8.61907 89.0471 8.48726C88.83 8.35545 88.5703 8.28954 88.2679 8.28954C87.8104 8.28954 87.4421 8.49501 87.163 8.90596C86.8838 9.31692 86.7442 9.9566 86.7442 10.825Z" fill="white"/>
<path d="M94.5221 16.0588H91.9401V15.7681C92.2037 15.644 92.4596 15.551 92.7077 15.4889V8.59194L91.9401 8.49889V8.19649C92.1882 8.08794 92.4402 8.00265 92.6961 7.94062C92.9597 7.87083 93.2156 7.81656 93.4637 7.77779H93.7545V9.08043H93.7661C93.9212 8.68498 94.1383 8.37095 94.4174 8.13834C94.6965 7.89797 95.061 7.77779 95.5107 7.77779C96.2008 7.77779 96.7358 8.00653 97.1157 8.464C97.4957 8.92147 97.6856 9.66584 97.6856 10.6971C97.6856 11.1856 97.6197 11.6275 97.4879 12.023C97.3638 12.4184 97.1816 12.7518 96.9413 13.0232C96.7087 13.2946 96.4218 13.504 96.0806 13.6513C95.7472 13.7986 95.375 13.8723 94.9641 13.8723C94.6772 13.8723 94.4523 13.8529 94.2895 13.8141C94.1266 13.7831 93.9483 13.7249 93.7545 13.6397V15.4889C93.8785 15.5044 94.0026 15.5316 94.1266 15.5703C94.2507 15.6169 94.3825 15.6828 94.5221 15.7681V16.0588ZM95.1385 8.49889C94.7586 8.49889 94.4562 8.61907 94.2313 8.85944C94.0065 9.09981 93.8475 9.42935 93.7545 9.84805V13.1046C93.894 13.1899 94.0491 13.2558 94.2197 13.3024C94.398 13.3411 94.6268 13.3605 94.9059 13.3605C95.1618 13.3605 95.3905 13.2946 95.5921 13.1628C95.8015 13.031 95.9759 12.8449 96.1155 12.6045C96.2628 12.3642 96.3752 12.085 96.4528 11.7671C96.5303 11.4415 96.5691 11.0848 96.5691 10.6971C96.5691 10.3792 96.5419 10.0884 96.4877 9.82479C96.4411 9.55341 96.3597 9.32079 96.2434 9.12695C96.1349 8.92535 95.9876 8.77027 95.8015 8.66172C95.6231 8.55317 95.4021 8.49889 95.1385 8.49889Z" fill="white"/>
<path d="M98.6208 7.91736H101.087V8.21975C101.001 8.26628 100.9 8.3128 100.784 8.35932C100.676 8.40585 100.544 8.45237 100.389 8.49889V11.6857L100.261 12.7674H100.319L100.772 11.8951L103.261 7.91736H104.832V8.21975C104.583 8.35932 104.328 8.45237 104.064 8.49889V13.1628C104.211 13.2016 104.351 13.2442 104.483 13.2907C104.614 13.3295 104.731 13.3799 104.832 13.4419V13.7327H102.366V13.4419C102.583 13.3179 102.816 13.2248 103.064 13.1628V9.83642L103.18 8.9176H103.122L102.68 9.7899L100.214 13.7327H98.6208V13.4419C98.7526 13.3799 98.8806 13.3295 99.0046 13.2907C99.1287 13.2442 99.2566 13.2016 99.3884 13.1628V8.49889C99.086 8.45237 98.8302 8.35932 98.6208 8.21975V7.91736Z" fill="white"/>
<path d="M106.033 9.62707C106.033 9.36344 106.076 9.12307 106.161 8.90596C106.246 8.68886 106.378 8.50277 106.556 8.34769C106.743 8.19262 106.975 8.07243 107.254 7.98714C107.541 7.8941 107.886 7.84757 108.289 7.84757C108.382 7.84757 108.51 7.85145 108.673 7.8592C108.844 7.86696 109.022 7.87471 109.208 7.88246C109.394 7.89022 109.573 7.89797 109.743 7.90573C109.922 7.91348 110.061 7.91736 110.162 7.91736H110.999V8.21975C110.937 8.27403 110.848 8.32443 110.732 8.37095C110.623 8.41748 110.457 8.46012 110.232 8.49889V13.1628C110.519 13.2481 110.775 13.3411 110.999 13.4419V13.7327H108.499V13.4419C108.6 13.3799 108.704 13.3295 108.813 13.2907C108.929 13.2442 109.053 13.2016 109.185 13.1628V11.1972L108.336 11.3135C108.173 11.5849 107.991 11.9144 107.789 12.3021C107.588 12.6821 107.312 13.0698 106.964 13.4652L106.603 13.7327H105.289V13.4419L105.94 13.1628C106.289 12.7984 106.584 12.4378 106.824 12.0811C107.064 11.7245 107.281 11.4221 107.475 11.1739C107.297 11.1429 107.123 11.0925 106.952 11.0227C106.781 10.9452 106.626 10.8444 106.487 10.7204C106.355 10.5885 106.246 10.4335 106.161 10.2551C106.076 10.0768 106.033 9.86743 106.033 9.62707ZM109.185 8.42911C109.084 8.4136 108.952 8.39809 108.79 8.38258C108.635 8.36708 108.503 8.35932 108.394 8.35932C107.913 8.35157 107.58 8.464 107.394 8.69661C107.216 8.92147 107.126 9.21999 107.126 9.59218C107.126 9.97211 107.266 10.2861 107.545 10.5343C107.832 10.7746 108.274 10.8948 108.871 10.8948H109.185V8.42911Z" fill="white"/>
<path d="M41.1602 21.2096H43.6259V21.512C43.5406 21.5585 43.4398 21.605 43.3235 21.6515C43.215 21.6981 43.0832 21.7446 42.9281 21.7911V24.9779L42.8002 26.0596H42.8583L43.3119 25.1873L45.8009 21.2096H47.371V21.512C47.1229 21.6515 46.867 21.7446 46.6034 21.7911V26.455C46.7507 26.4938 46.8903 26.5364 47.0221 26.5829C47.1539 26.6217 47.2702 26.6721 47.371 26.7341V27.0249H44.9053V26.7341C45.1224 26.6101 45.355 26.517 45.6032 26.455V23.1286L45.7195 22.2098H45.6613L45.2193 23.0821L42.7536 27.0249H41.1602V26.7341C41.2921 26.6721 41.42 26.6217 41.544 26.5829C41.6681 26.5364 41.796 26.4938 41.9279 26.455V21.7911C41.6255 21.7446 41.3696 21.6515 41.1602 21.512V21.2096Z" fill="white"/>
<path d="M50.7824 27.0249H48.2818V26.7341C48.3903 26.6721 48.5105 26.6217 48.6423 26.5829C48.7741 26.5364 48.9098 26.4938 49.0494 26.455V21.7911C48.9098 21.7523 48.7741 21.7136 48.6423 21.6748C48.5105 21.6283 48.3903 21.574 48.2818 21.512V21.2096H50.7824V21.512C50.604 21.6205 50.3753 21.7136 50.0961 21.7911V23.8265H52.6782V21.7911C52.4068 21.7446 52.1742 21.6515 51.9803 21.512V21.2096H54.4925V21.512C54.2832 21.6438 54.0273 21.7368 53.7249 21.7911V26.455C53.8645 26.486 54.0002 26.5209 54.132 26.5597C54.2638 26.5985 54.384 26.6566 54.4925 26.7341V27.0249H51.9803V26.7341C52.1742 26.5946 52.4068 26.5015 52.6782 26.455V24.3382H50.0961V26.455C50.2512 26.486 50.383 26.5248 50.4916 26.5713C50.6001 26.6178 50.6971 26.6721 50.7824 26.7341V27.0249Z" fill="white"/>
<path d="M59.1251 27.0249H56.5431V26.7341C56.7835 26.6101 57.0393 26.517 57.3107 26.455V21.7213H56.2291L55.7173 23.117H55.4149C55.3761 22.7836 55.3451 22.4579 55.3219 22.14C55.2986 21.8144 55.2831 21.5042 55.2753 21.2096H60.3928C60.3851 21.4887 60.3696 21.795 60.3463 22.1284C60.3308 22.4541 60.2998 22.7836 60.2533 23.117H59.9509L59.4391 21.7213H58.3575V26.455C58.7219 26.5481 58.9778 26.6411 59.1251 26.7341V27.0249Z" fill="white"/>
<path d="M65.9069 26.2108C65.8448 26.3426 65.7479 26.4666 65.6161 26.5829C65.4843 26.6993 65.3331 26.8001 65.1625 26.8853C64.9919 26.9706 64.8058 27.0365 64.6042 27.0831C64.4026 27.1373 64.1972 27.1645 63.9878 27.1645C63.5303 27.1645 63.1271 27.0947 62.7782 26.9551C62.4293 26.8078 62.1385 26.6023 61.9059 26.3387C61.6733 26.0673 61.495 25.7455 61.3709 25.3734C61.2546 25.0012 61.1965 24.5825 61.1965 24.1172C61.1965 23.1248 61.4252 22.3688 61.8827 21.8493C62.3401 21.3298 62.9876 21.07 63.825 21.07C64.0964 21.07 64.3639 21.1088 64.6275 21.1863C64.8911 21.2561 65.1237 21.3763 65.3253 21.5469C65.5347 21.7174 65.7014 21.9462 65.8255 22.2331C65.9573 22.5122 66.0232 22.8611 66.0232 23.2798C66.0232 23.4116 66.0154 23.5473 65.9999 23.6869C65.9922 23.8187 65.9728 23.9622 65.9418 24.1172H62.313C62.313 24.4429 62.3518 24.7492 62.4293 25.0361C62.5146 25.3152 62.6387 25.5594 62.8015 25.7688C62.9643 25.9781 63.1698 26.1449 63.4179 26.2689C63.666 26.3852 63.9568 26.4434 64.2902 26.4434C64.5616 26.4434 64.8369 26.4046 65.116 26.3271C65.3951 26.2495 65.6045 26.1487 65.744 26.0247L65.9069 26.2108ZM63.7785 21.5817C63.3365 21.5817 62.9992 21.733 62.7666 22.0353C62.534 22.33 62.3944 22.8534 62.3479 23.6055H64.9066C64.9144 23.5357 64.9183 23.4698 64.9183 23.4078C64.926 23.338 64.9299 23.2721 64.9299 23.21C64.9299 22.7138 64.8369 22.3184 64.6508 22.0237C64.4647 21.7291 64.1739 21.5817 63.7785 21.5817Z" fill="white"/>
<path d="M69.5116 29.351H66.9296V29.0603C67.1932 28.9362 67.4491 28.8432 67.6972 28.7811V21.8841L66.9296 21.7911V21.4887C67.1777 21.3802 67.4297 21.2949 67.6856 21.2328C67.9492 21.163 68.2051 21.1088 68.4532 21.07H68.7439V22.3726H68.7556C68.9107 21.9772 69.1278 21.6632 69.4069 21.4306C69.686 21.1902 70.0505 21.07 70.5002 21.07C71.1903 21.07 71.7253 21.2987 72.1052 21.7562C72.4852 22.2137 72.6751 22.958 72.6751 23.9893C72.6751 24.4778 72.6092 24.9198 72.4774 25.3152C72.3533 25.7106 72.1711 26.0441 71.9308 26.3154C71.6981 26.5868 71.4113 26.7962 71.0701 26.9435C70.7367 27.0908 70.3645 27.1645 69.9535 27.1645C69.6666 27.1645 69.4418 27.1451 69.279 27.1063C69.1161 27.0753 68.9378 27.0172 68.7439 26.9319V28.7811C68.868 28.7967 68.9921 28.8238 69.1161 28.8626C69.2402 28.9091 69.372 28.975 69.5116 29.0603V29.351ZM70.128 21.7911C69.7481 21.7911 69.4457 21.9113 69.2208 22.1517C68.9959 22.392 68.837 22.7216 68.7439 23.1403V26.3969C68.8835 26.4821 69.0386 26.5481 69.2092 26.5946C69.3875 26.6333 69.6162 26.6527 69.8954 26.6527C70.1513 26.6527 70.38 26.5868 70.5816 26.455C70.7909 26.3232 70.9654 26.1371 71.105 25.8967C71.2523 25.6564 71.3647 25.3772 71.4423 25.0593C71.5198 24.7337 71.5586 24.377 71.5586 23.9893C71.5586 23.6714 71.5314 23.3806 71.4772 23.117C71.4306 22.8456 71.3492 22.613 71.2329 22.4192C71.1244 22.2176 70.977 22.0625 70.7909 21.9539C70.6126 21.8454 70.3916 21.7911 70.128 21.7911Z" fill="white"/>
<path d="M76.1109 27.0249H73.6103V26.7341C73.7189 26.6721 73.839 26.6217 73.9708 26.5829C74.1027 26.5364 74.2384 26.4938 74.3779 26.455V21.7911C74.2384 21.7523 74.1027 21.7136 73.9708 21.6748C73.839 21.6283 73.7189 21.574 73.6103 21.512V21.2096H76.1109V21.512C75.9326 21.6205 75.7038 21.7136 75.4247 21.7911V23.8265H78.0067V21.7911C77.7353 21.7446 77.5027 21.6515 77.3089 21.512V21.2096H79.8211V21.512C79.6117 21.6438 79.3559 21.7368 79.0535 21.7911V26.455C79.193 26.486 79.3287 26.5209 79.4605 26.5597C79.5923 26.5985 79.7125 26.6566 79.8211 26.7341V27.0249H77.3089V26.7341C77.5027 26.5946 77.7353 26.5015 78.0067 26.455V24.3382H75.4247V26.455C75.5798 26.486 75.7116 26.5248 75.8201 26.5713C75.9287 26.6178 76.0256 26.6721 76.1109 26.7341V27.0249Z" fill="white"/>
<path d="M85.4655 26.2108C85.4035 26.3426 85.3066 26.4666 85.1747 26.5829C85.0429 26.6993 84.8917 26.8001 84.7211 26.8853C84.5506 26.9706 84.3645 27.0365 84.1629 27.0831C83.9613 27.1373 83.7558 27.1645 83.5464 27.1645C83.089 27.1645 82.6858 27.0947 82.3369 26.9551C81.9879 26.8078 81.6972 26.6023 81.4646 26.3387C81.2319 26.0673 81.0536 25.7455 80.9295 25.3734C80.8132 25.0012 80.7551 24.5825 80.7551 24.1172C80.7551 23.1248 80.9838 22.3688 81.4413 21.8493C81.8988 21.3298 82.5462 21.07 83.3836 21.07C83.655 21.07 83.9225 21.1088 84.1861 21.1863C84.4498 21.2561 84.6824 21.3763 84.884 21.5469C85.0933 21.7174 85.26 21.9462 85.3841 22.2331C85.5159 22.5122 85.5818 22.8611 85.5818 23.2798C85.5818 23.4116 85.5741 23.5473 85.5586 23.6869C85.5508 23.8187 85.5314 23.9622 85.5004 24.1172H81.8716C81.8716 24.4429 81.9104 24.7492 81.9879 25.0361C82.0732 25.3152 82.1973 25.5594 82.3601 25.7688C82.5229 25.9781 82.7284 26.1449 82.9765 26.2689C83.2247 26.3852 83.5154 26.4434 83.8488 26.4434C84.1202 26.4434 84.3955 26.4046 84.6746 26.3271C84.9538 26.2495 85.1631 26.1487 85.3027 26.0247L85.4655 26.2108ZM83.3371 21.5817C82.8951 21.5817 82.5578 21.733 82.3252 22.0353C82.0926 22.33 81.953 22.8534 81.9065 23.6055H84.4653C84.473 23.5357 84.4769 23.4698 84.4769 23.4078C84.4847 23.338 84.4885 23.2721 84.4885 23.21C84.4885 22.7138 84.3955 22.3184 84.2094 22.0237C84.0233 21.7291 83.7325 21.5817 83.3371 21.5817Z" fill="white"/>
<path d="M90.3031 27.0249H87.721V26.7341C87.9614 26.6101 88.2173 26.517 88.4887 26.455V21.7213H87.407L86.8953 23.117H86.5929C86.5541 22.7836 86.5231 22.4579 86.4998 22.14C86.4766 21.8144 86.4611 21.5042 86.4533 21.2096H91.5708C91.563 21.4887 91.5475 21.795 91.5243 22.1284C91.5088 22.4541 91.4778 22.7836 91.4312 23.117H91.1288L90.6171 21.7213H89.5354V26.455C89.8999 26.5481 90.1557 26.6411 90.3031 26.7341V27.0249Z" fill="white"/>
<g clip-path="url(#clip0)">
<path d="M30.3291 23.2133C29.5616 22.4458 28.4996 21.97 27.3272 21.97C27.0714 21.97 26.8218 21.9938 26.5799 22.0401C26.0871 22.1316 25.6244 22.3092 25.2006 22.5472C20.6039 25.1316 17.1769 25.4234 15.8064 25.4234C15.7913 25.4234 15.7776 25.4234 15.7637 25.4234C14.6301 25.4234 12.0775 25.2027 8.63573 23.6743C8.60007 24.012 8.57084 24.3621 8.54514 24.7186C8.51434 25.1962 8.4855 25.6778 8.47993 26.1972C8.47233 26.9196 8.30556 27.6521 7.91693 28.3246C7.61475 28.8468 7.21851 29.2811 6.7621 29.618C6.59235 29.7425 6.4038 29.8323 6.21924 29.9295C6.26681 29.9049 6.32174 29.8933 6.36837 29.8672C10.9651 27.2828 14.3921 26.9898 15.7637 26.9898C15.7776 26.9898 15.7913 26.9898 15.8064 26.9898C17.1769 26.9898 20.6039 27.2828 25.2006 29.8672C25.6244 30.1051 26.0871 30.2829 26.5799 30.3743C26.8218 30.4194 27.0714 30.4431 27.3272 30.4431C28.4996 30.4431 29.5616 29.9687 30.3291 29.201C31.0952 28.4335 31.5692 27.3754 31.5692 26.2059C31.5692 25.0378 31.0952 23.9797 30.3291 23.2133Z" fill="#1BB7E0"/>
<path opacity="0.35" d="M30.3291 23.2133C29.5616 22.4458 28.4996 21.97 27.3272 21.97C27.0714 21.97 26.8218 21.9938 26.5799 22.0401C26.0871 22.1316 25.6244 22.3092 25.2006 22.5472C20.6039 25.1316 17.1769 25.4234 15.8064 25.4234C15.7913 25.4234 15.7776 25.4234 15.7637 25.4234C14.6301 25.4234 12.0775 25.2027 8.63573 23.6743C8.60007 24.012 8.57084 24.3621 8.54514 24.7186C8.51434 25.1962 8.4855 25.6778 8.47993 26.1972C8.47233 26.9196 8.30556 27.6521 7.91693 28.3246C7.61475 28.8468 7.21851 29.2811 6.7621 29.618C6.59235 29.7425 6.4038 29.8323 6.21924 29.9295C6.26681 29.9049 6.32174 29.8933 6.36837 29.8672C10.9651 27.2828 14.3921 26.9898 15.7637 26.9898C15.7776 26.9898 15.7913 26.9898 15.8064 26.9898C17.1769 26.9898 20.6039 27.2828 25.2006 29.8672C25.6244 30.1051 26.0871 30.2829 26.5799 30.3743C26.8218 30.4194 27.0714 30.4431 27.3272 30.4431C28.4996 30.4431 29.5616 29.9687 30.3291 29.201C31.0952 28.4335 31.5692 27.3754 31.5692 26.2059C31.5692 25.0378 31.0952 23.9797 30.3291 23.2133Z" fill="url(#paint0_linear)"/>
<path d="M13.6734 9.91195C13.3637 9.72914 13.0715 9.51126 12.8095 9.25591C12.5423 8.99664 12.3054 8.69988 12.1097 8.36181C11.7034 7.65709 11.5355 6.88609 11.5562 6.12988C11.5547 6.17058 11.5484 6.21135 11.548 6.25197C11.4916 11.5197 10.0308 14.6287 9.3462 15.8145C9.3386 15.8271 9.33233 15.8384 9.32489 15.8521C8.85468 16.666 7.77883 18.2499 5.68107 20.0304C4.72434 20.8431 3.55438 21.697 2.13246 22.5373C1.80778 22.7301 1.50175 22.9605 1.22715 23.2333C0.977702 23.4826 0.754508 23.7669 0.570107 24.0874C0.099896 24.8988 -0.0705555 25.8002 0.0259945 26.6642C0.166431 27.9603 0.903722 29.1736 2.12118 29.8759C2.45103 30.0663 2.79468 30.2065 3.14569 30.3005C4.39833 30.636 5.7324 30.373 6.76192 29.618C7.21834 29.2811 7.61457 28.8468 7.91676 28.3246C8.30539 27.6521 8.47216 26.9196 8.47976 26.1973C8.53611 20.9295 9.9969 17.8192 10.6829 16.6347C10.6904 16.6221 10.6966 16.6096 10.7042 16.5983C11.2107 15.7207 12.4194 13.9501 14.8521 12.0031C15.137 11.7744 15.4652 11.5414 15.7847 11.3091C15.1452 10.8448 14.461 10.3773 13.6734 9.91195Z" fill="#E22B46"/>
<path opacity="0.35" d="M13.6734 9.91195C13.3637 9.72914 13.0715 9.51126 12.8095 9.25591C12.5423 8.99664 12.3054 8.69988 12.1097 8.36181C11.7034 7.65709 11.5355 6.88609 11.5562 6.12988C11.5547 6.17058 11.5484 6.21135 11.548 6.25197C11.4916 11.5197 10.0308 14.6287 9.3462 15.8145C9.3386 15.8271 9.33233 15.8384 9.32489 15.8521C8.85468 16.666 7.77883 18.2499 5.68107 20.0304C4.72434 20.8431 3.55438 21.697 2.13246 22.5373C1.80778 22.7301 1.50175 22.9605 1.22715 23.2333C0.977702 23.4826 0.754508 23.7669 0.570107 24.0874C0.099896 24.8988 -0.0705555 25.8002 0.0259945 26.6642C0.166431 27.9603 0.903722 29.1736 2.12118 29.8759C2.45103 30.0663 2.79468 30.2065 3.14569 30.3005C4.39833 30.636 5.7324 30.373 6.76192 29.618C7.21834 29.2811 7.61457 28.8468 7.91676 28.3246C8.30539 27.6521 8.47216 26.9196 8.47976 26.1973C8.53611 20.9295 9.9969 17.8192 10.6829 16.6347C10.6904 16.6221 10.6966 16.6096 10.7042 16.5983C11.2107 15.7207 12.4194 13.9501 14.8521 12.0031C15.137 11.7744 15.4652 11.5414 15.7847 11.3091C15.1452 10.8448 14.461 10.3773 13.6734 9.91195Z" fill="url(#paint1_linear)"/>
<path d="M12.8097 9.25598C13.0717 9.51133 13.3639 9.72921 13.6736 9.91202C18.2127 12.5941 20.1801 15.4115 20.8659 16.5984C20.8734 16.6097 20.8797 16.6222 20.886 16.6348C21.453 17.6139 22.5374 19.9326 22.9328 23.6746C23.6554 23.3537 24.403 22.9957 25.2006 22.5473C25.6244 22.3093 26.0872 22.1316 26.58 22.0402C26.8219 21.9939 27.0715 21.97 27.3273 21.97C28.1354 21.97 28.8832 22.2084 29.5261 22.6003C29.4951 22.5812 29.4677 22.5558 29.4363 22.5373C24.8971 19.8553 22.9299 17.0366 22.244 15.8521C22.2376 15.8384 22.2302 15.8272 22.2239 15.8146C21.538 14.6288 20.0772 11.5198 20.022 6.25329C20.0183 5.89393 19.9744 5.53339 19.8854 5.17896C19.7939 4.81835 19.6547 4.46274 19.4578 4.12466C18.8722 3.11169 17.9305 2.43178 16.8822 2.15138C15.8792 1.8821 14.7758 1.97984 13.794 2.50065C12.7608 3.05033 11.9896 4.01581 11.6862 5.14515C11.4053 6.19193 11.5244 7.3464 12.1099 8.36188C12.3056 8.69995 12.5425 8.99671 12.8097 9.25598Z" fill="#68CE46"/>
<path opacity="0.35" d="M12.8097 9.25598C13.0717 9.51133 13.3639 9.72921 13.6736 9.91202C18.2127 12.5941 20.1801 15.4115 20.8659 16.5984C20.8734 16.6097 20.8797 16.6222 20.886 16.6348C21.453 17.6139 22.5374 19.9326 22.9328 23.6746C23.6554 23.3537 24.403 22.9957 25.2006 22.5473C25.6244 22.3093 26.0872 22.1316 26.58 22.0402C26.8219 21.9939 27.0715 21.97 27.3273 21.97C28.1354 21.97 28.8832 22.2084 29.5261 22.6003C29.4951 22.5812 29.4677 22.5558 29.4363 22.5373C24.8971 19.8553 22.9299 17.0366 22.244 15.8521C22.2376 15.8384 22.2302 15.8272 22.2239 15.8146C21.538 14.6288 20.0772 11.5198 20.022 6.25329C20.0183 5.89393 19.9744 5.53339 19.8854 5.17896C19.7939 4.81835 19.6547 4.46274 19.4578 4.12466C18.8722 3.11169 17.9305 2.43178 16.8822 2.15138C15.8792 1.8821 14.7758 1.97984 13.794 2.50065C12.7608 3.05033 11.9896 4.01581 11.6862 5.14515C11.4053 6.19193 11.5244 7.3464 12.1099 8.36188C12.3056 8.69995 12.5425 8.99671 12.8097 9.25598Z" fill="url(#paint2_linear)"/>
</g>
<defs>
<linearGradient id="paint0_linear" x1="20.8539" y1="33.0693" x2="16.4119" y2="20.848" gradientUnits="userSpaceOnUse">
<stop stop-color="#004854" stop-opacity="0"/>
<stop offset="1" stop-color="#004854"/>
</linearGradient>
<linearGradient id="paint1_linear" x1="1.2625e-07" y1="18.2869" x2="15.7847" y2="18.2869" gradientUnits="userSpaceOnUse">
<stop stop-color="#6D000D" stop-opacity="0"/>
<stop offset="1" stop-color="#6D000D"/>
</linearGradient>
<linearGradient id="paint2_linear" x1="24.8158" y1="9.26954" x2="16.6731" y2="17.4237" gradientUnits="userSpaceOnUse">
<stop stop-opacity="0"/>
<stop offset="1"/>
</linearGradient>
<clipPath id="clip0">
<rect y="0.44043" width="31.569" height="31.569" fill="white"/>
</clipPath>
</defs>
</svg>
