<svg width="38" height="38" viewBox="0 0 38 38" fill="none" xmlns="http://www.w3.org/2000/svg">
<path d="M36.5073 27.4122C35.5835 26.4883 34.3052 25.9155 32.8939 25.9155C32.586 25.9155 32.2856 25.9443 31.9944 25.9999C31.4012 26.1101 30.8442 26.3239 30.334 26.6103C24.8009 29.7212 20.6758 30.0725 19.0261 30.0725C19.008 30.0725 18.9915 30.0725 18.9748 30.0725C17.6102 30.0725 14.5376 29.8068 10.3947 27.967C10.3518 28.3735 10.3166 28.795 10.2857 29.224C10.2486 29.7989 10.2139 30.3787 10.2072 31.0039C10.198 31.8734 9.9973 32.7552 9.5295 33.5647C9.16575 34.1932 8.6888 34.716 8.13941 35.1215C7.93508 35.2714 7.70812 35.3795 7.48596 35.4966C7.54322 35.4669 7.60935 35.4529 7.66548 35.4216C13.1986 32.3107 17.3237 31.9579 18.9748 31.9579C18.9915 31.9579 19.008 31.9579 19.0261 31.9579C20.6758 31.9579 24.8009 32.3107 30.334 35.4216C30.8442 35.7078 31.4012 35.9219 31.9944 36.0319C32.2856 36.0862 32.586 36.1148 32.8939 36.1148C34.3052 36.1148 35.5835 35.5437 36.5073 34.6195C37.4295 33.6957 38 32.4221 38 31.0144C38 29.6083 37.4295 28.3347 36.5073 27.4122Z" fill="#1BB7E0"/>
<path opacity="0.35" d="M36.5073 27.4122C35.5835 26.4883 34.3052 25.9155 32.8939 25.9155C32.586 25.9155 32.2856 25.9443 31.9944 25.9999C31.4012 26.1101 30.8442 26.3239 30.334 26.6103C24.8009 29.7212 20.6758 30.0725 19.0261 30.0725C19.008 30.0725 18.9915 30.0725 18.9748 30.0725C17.6102 30.0725 14.5376 29.8068 10.3947 27.967C10.3518 28.3735 10.3166 28.795 10.2857 29.224C10.2486 29.7989 10.2139 30.3787 10.2072 31.0039C10.198 31.8734 9.9973 32.7552 9.5295 33.5647C9.16575 34.1932 8.6888 34.716 8.13941 35.1215C7.93508 35.2714 7.70812 35.3795 7.48596 35.4966C7.54322 35.4669 7.60935 35.4529 7.66548 35.4216C13.1986 32.3107 17.3237 31.9579 18.9748 31.9579C18.9915 31.9579 19.008 31.9579 19.0261 31.9579C20.6758 31.9579 24.8009 32.3107 30.334 35.4216C30.8442 35.7078 31.4012 35.9219 31.9944 36.0319C32.2856 36.0862 32.586 36.1148 32.8939 36.1148C34.3052 36.1148 35.5835 35.5437 36.5073 34.6195C37.4295 33.6957 38 32.4221 38 31.0144C38 29.6083 37.4295 28.3347 36.5073 27.4122Z" fill="url(#paint0_linear)"/>
<path d="M16.4588 11.4011C16.086 11.1811 15.7344 10.9188 15.4189 10.6115C15.0973 10.2994 14.8122 9.94217 14.5766 9.53523C14.0875 8.68695 13.8854 7.75889 13.9103 6.84863C13.9085 6.89762 13.9009 6.9467 13.9004 6.99559C13.8326 13.3364 12.0742 17.0788 11.2501 18.5061C11.241 18.5213 11.2334 18.5349 11.2245 18.5513C10.6585 19.5311 9.36348 21.4376 6.83837 23.5809C5.68675 24.5591 4.27845 25.587 2.56687 26.5984C2.17605 26.8305 1.80768 27.1078 1.47713 27.4362C1.17687 27.7363 0.908211 28.0785 0.686245 28.4643C0.120246 29.441 -0.0849285 30.5261 0.0312899 31.5661C0.200335 33.1261 1.08782 34.5866 2.55329 35.4321C2.95033 35.6612 3.36399 35.83 3.7865 35.9431C5.29432 36.3469 6.90016 36.0304 8.13941 35.1216C8.68881 34.716 9.16576 34.1932 9.52951 33.5647C9.9973 32.7553 10.198 31.8734 10.2072 31.004C10.275 24.6632 12.0334 20.9192 12.8591 19.4934C12.8681 19.4783 12.8756 19.4632 12.8847 19.4496C13.4944 18.3932 14.9494 16.2619 17.8776 13.9183C18.2206 13.643 18.6157 13.3625 19.0003 13.0829C18.2305 12.524 17.4069 11.9614 16.4588 11.4011Z" fill="#E22B46"/>
<path opacity="0.35" d="M16.4588 11.4011C16.086 11.1811 15.7344 10.9188 15.4189 10.6115C15.0973 10.2994 14.8122 9.94217 14.5766 9.53523C14.0875 8.68695 13.8854 7.75889 13.9103 6.84863C13.9085 6.89762 13.9009 6.9467 13.9004 6.99559C13.8326 13.3364 12.0742 17.0788 11.2501 18.5061C11.241 18.5213 11.2334 18.5349 11.2245 18.5513C10.6585 19.5311 9.36348 21.4376 6.83837 23.5809C5.68675 24.5591 4.27845 25.587 2.56687 26.5984C2.17605 26.8305 1.80768 27.1078 1.47713 27.4362C1.17687 27.7363 0.908211 28.0785 0.686245 28.4643C0.120246 29.441 -0.0849285 30.5261 0.0312899 31.5661C0.200335 33.1261 1.08782 34.5866 2.55329 35.4321C2.95033 35.6612 3.36399 35.83 3.7865 35.9431C5.29432 36.3469 6.90016 36.0304 8.13941 35.1216C8.68881 34.716 9.16576 34.1932 9.52951 33.5647C9.9973 32.7553 10.198 31.8734 10.2072 31.004C10.275 24.6632 12.0334 20.9192 12.8591 19.4934C12.8681 19.4783 12.8756 19.4632 12.8847 19.4496C13.4944 18.3932 14.9494 16.2619 17.8776 13.9183C18.2206 13.643 18.6157 13.3625 19.0003 13.0829C18.2305 12.524 17.4069 11.9614 16.4588 11.4011Z" fill="url(#paint1_linear)"/>
<path d="M15.4191 10.6113C15.7345 10.9187 16.0862 11.181 16.459 11.401C21.9228 14.6295 24.2909 18.0208 25.1165 19.4495C25.1255 19.4631 25.1331 19.4781 25.1407 19.4933C25.8232 20.6718 27.1284 23.4629 27.6045 27.9672C28.4742 27.581 29.374 27.15 30.3342 26.6102C30.8443 26.3238 31.4014 26.1099 31.9945 25.9998C32.2857 25.9441 32.5862 25.9154 32.8941 25.9154C33.8668 25.9154 34.767 26.2023 35.5409 26.6741C35.5035 26.651 35.4706 26.6205 35.4328 26.5983C29.9689 23.3698 27.6009 19.977 26.7753 18.5512C26.7676 18.5347 26.7587 18.5212 26.7511 18.506C25.9255 17.0787 24.1671 13.3363 24.1006 6.99696C24.0962 6.56439 24.0433 6.13041 23.9362 5.70378C23.826 5.2697 23.6585 4.84165 23.4215 4.43471C22.7166 3.21538 21.5831 2.39697 20.3213 2.05945C19.1139 1.7353 17.7857 1.85296 16.6039 2.47986C15.3602 3.14153 14.432 4.30368 14.0667 5.66308C13.7286 6.92311 13.872 8.31275 14.5768 9.53509C14.8123 9.94204 15.0975 10.2992 15.4191 10.6113Z" fill="#68CE46"/>
<path opacity="0.35" d="M15.4191 10.6113C15.7345 10.9187 16.0862 11.181 16.459 11.401C21.9228 14.6295 24.2909 18.0208 25.1165 19.4495C25.1255 19.4631 25.1331 19.4781 25.1407 19.4933C25.8232 20.6718 27.1284 23.4629 27.6045 27.9672C28.4742 27.581 29.374 27.15 30.3342 26.6102C30.8443 26.3238 31.4014 26.1099 31.9945 25.9998C32.2857 25.9441 32.5862 25.9154 32.8941 25.9154C33.8668 25.9154 34.767 26.2023 35.5409 26.6741C35.5035 26.651 35.4706 26.6205 35.4328 26.5983C29.9689 23.3698 27.6009 19.977 26.7753 18.5512C26.7676 18.5347 26.7587 18.5212 26.7511 18.506C25.9255 17.0787 24.1671 13.3363 24.1006 6.99696C24.0962 6.56439 24.0433 6.13041 23.9362 5.70378C23.826 5.2697 23.6585 4.84165 23.4215 4.43471C22.7166 3.21538 21.5831 2.39697 20.3213 2.05945C19.1139 1.7353 17.7857 1.85296 16.6039 2.47986C15.3602 3.14153 14.432 4.30368 14.0667 5.66308C13.7286 6.92311 13.872 8.31275 14.5768 9.53509C14.8123 9.94204 15.0975 10.2992 15.4191 10.6113Z" fill="url(#paint2_linear)"/>
<defs>
<linearGradient id="paint0_linear" x1="25.1018" y1="39.2759" x2="19.755" y2="24.565" gradientUnits="userSpaceOnUse">
<stop stop-color="#004854" stop-opacity="0"/>
<stop offset="1" stop-color="#004854"/>
</linearGradient>
<linearGradient id="paint1_linear" x1="1.51969e-07" y1="21.4822" x2="19.0003" y2="21.4822" gradientUnits="userSpaceOnUse">
<stop stop-color="#6D000D" stop-opacity="0"/>
<stop offset="1" stop-color="#6D000D"/>
</linearGradient>
<linearGradient id="paint2_linear" x1="29.8709" y1="10.6277" x2="20.0695" y2="20.4429" gradientUnits="userSpaceOnUse">
<stop stop-opacity="0"/>
<stop offset="1"/>
</linearGradient>
</defs>
</svg>
