<svg width="16" height="16" viewBox="0 0 16 16" fill="none" xmlns="http://www.w3.org/2000/svg">
<path d="M14.7368 10.5347C13.762 10.5366 12.7931 10.3825 11.8669 10.0783C11.4339 9.92689 10.9526 10.0288 10.6181 10.3427L8.80086 11.7137C6.84924 10.7339 5.26572 9.15064 4.2855 7.19918L5.62023 5.4257C5.95722 5.08848 6.07773 4.59139 5.93266 4.13728C5.62729 3.20984 5.47236 2.23954 5.4737 1.26316C5.4737 0.56554 4.90816 0 4.21054 0H1.26316C0.56554 0 0 0.56554 0 1.26316C0.00927632 9.39826 6.60174 15.9907 14.7368 16C15.4345 16 16 15.4345 16 14.7368V11.7979C16 11.1003 15.4345 10.5347 14.7368 10.5347Z" fill="#008BFF"/>
</svg>
