<svg width="30" height="30" viewBox="0 0 30 30" fill="none" xmlns="http://www.w3.org/2000/svg">
<g clip-path="url(#clip0)">
<path d="M14.6791 23.4865H16.4717C16.4717 23.4865 17.0137 23.4265 17.2893 23.1283C17.5443 22.8545 17.535 22.3407 17.535 22.3407C17.535 22.3407 17.4993 19.9349 18.6169 19.5805C19.7176 19.2318 21.1315 21.9057 22.6297 22.9352C23.7623 23.7134 24.623 23.5427 24.623 23.5427L28.6301 23.4865C28.6301 23.4865 30.7265 23.3571 29.7327 21.7088C29.6521 21.5738 29.1533 20.49 26.7531 18.2623C24.2404 15.9296 24.578 16.3084 27.6044 12.275C29.4477 9.81857 30.1846 8.31846 29.954 7.67716C29.7346 7.06586 28.3789 7.22713 28.3789 7.22713L23.871 7.25338C23.871 7.25338 23.5373 7.20838 23.2879 7.35651C23.046 7.50277 22.8903 7.8403 22.8903 7.8403C22.8903 7.8403 22.1759 9.74169 21.2233 11.3581C19.2151 14.7689 18.4106 14.9489 18.0825 14.7371C17.3193 14.2439 17.5106 12.7532 17.5106 11.6956C17.5106 8.38971 18.0112 7.01149 16.5336 6.65521C16.0423 6.53708 15.6823 6.45832 14.4278 6.44519C12.819 6.42832 11.4558 6.45082 10.6851 6.82772C10.1713 7.07899 9.77563 7.63966 10.0175 7.67153C10.3157 7.71091 10.9907 7.85342 11.3489 8.34096C11.812 8.96913 11.7952 10.383 11.7952 10.383C11.7952 10.383 12.0614 14.2739 11.1745 14.7577C10.5651 15.0896 9.73063 14.4127 7.93987 11.3168C7.02293 9.73231 6.32913 7.97906 6.32913 7.97906C6.32913 7.97906 6.19599 7.65278 5.95785 7.4784C5.66908 7.2665 5.26405 7.199 5.26405 7.199L0.977487 7.22525C0.977487 7.22525 0.334315 7.244 0.0980478 7.5234C-0.111968 7.77279 0.0811716 8.28658 0.0811716 8.28658C0.0811716 8.28658 3.43767 16.1378 7.2367 20.0962C10.7226 23.7246 14.6791 23.4865 14.6791 23.4865Z" fill="#1E88E5"/>
</g>
<defs>
<clipPath id="clip0">
<rect width="30" height="30" fill="white"/>
</clipPath>
</defs>
</svg>
