<svg width="30" height="36" viewBox="0 0 30 36" fill="none" xmlns="http://www.w3.org/2000/svg">
<path d="M4.3934 4.44645C10.2513 -1.48215 19.7487 -1.48215 25.6066 4.44645C31.4645 10.3751 31.4645 19.9872 25.6066 25.9158L16.0972 35.54C15.4912 36.1533 14.5088 36.1533 13.9028 35.54L4.3934 25.9158C-1.46447 19.9872 -1.46447 10.3751 4.3934 4.44645Z" fill="#005CA9"/>
<path fill-rule="evenodd" clip-rule="evenodd" d="M20.2425 5.5212C16.136 5.80736 12.8254 9.78409 11.4883 13.3154C10.5332 16.1787 10.9156 19.7102 11.743 22.5096H5.50365C4.8354 19.7739 5.24902 16.6878 6.07682 14.1745C7.82745 9.43421 12.6662 5.36207 17.855 5.23492C18.7145 5.23492 19.4782 5.29858 20.2425 5.5212ZM23.6169 16.9741C24.8583 14.4927 25.4948 10.7067 23.776 8.25703C23.6169 9.75229 23.0758 11.152 22.1844 12.393C19.7332 15.3835 16.4227 16.9741 12.7617 17.4195C12.7938 19.2012 13.1119 20.9509 13.7484 22.5096C17.7596 22.5415 21.5798 20.569 23.6169 16.9741ZM22.2162 7.49338L21.8025 7.0164C19.9561 6.15736 18.078 7.30285 16.6772 8.48003C14.6081 10.5159 13.1438 12.8701 12.7617 15.6379C15.181 15.2878 17.4732 14.3337 19.4782 12.8701C21.102 11.5338 22.821 9.75229 22.2162 7.49338Z" fill="white"/>
</svg>
