<svg width="63" height="76" viewBox="0 0 63 76" fill="none" xmlns="http://www.w3.org/2000/svg">
<path fill-rule="evenodd" clip-rule="evenodd" d="M6.83845 0.754089H56.1616C59.5784 0.754089 62.3749 3.36921 62.3749 6.56621V69.4345C62.3749 72.6314 59.5784 75.2459 56.1616 75.2459H6.83845C3.42115 75.2459 0.625137 72.6314 0.625137 69.4345V6.56621C0.625137 3.36921 3.42115 0.754089 6.83845 0.754089Z" fill="white"/>
<path fill-rule="evenodd" clip-rule="evenodd" d="M45.7673 5.45017C34.5662 6.22583 25.5361 17.0051 21.8888 26.577C19.2837 34.3383 20.3266 43.9108 22.5835 51.4989H5.56464C3.74188 44.0833 4.8701 35.7182 7.12807 28.9059C11.9032 16.0567 25.1016 5.01883 39.255 4.6742C41.5996 4.6742 43.6826 4.84673 45.7673 5.45017ZM56.6983 60.1794V62.2742H57.6676V63.8711H56.6983V69.3529C56.6983 69.6118 56.7384 69.7861 56.8178 69.8756C56.8956 69.9646 57.0306 70.0083 57.2201 70.0083H57.6676V71.5581H56.4384C55.5569 71.5581 54.9536 71.4377 54.6326 71.1959C54.3095 70.955 54.1479 70.3403 54.1479 69.3529V63.8711H53.4728V62.2742H54.1479V60.1794H56.6983ZM4.52258 71.53V60.1794H7.8974C9.36542 60.1794 10.3025 60.3139 10.7091 60.585C11.1119 60.8559 11.3144 61.5045 11.3144 62.5283V65.3668C11.3144 66.4 11.1119 67.0517 10.7047 67.3223C10.2965 67.5937 9.36542 67.7279 7.91448 67.7279H7.48467V71.53H4.52258ZM7.48467 62.0095V65.8984C7.51852 65.8984 7.56683 65.8999 7.62716 65.9054C7.68966 65.9103 7.73473 65.9125 7.76335 65.9125C7.98776 65.9125 8.13981 65.8807 8.21967 65.8168C8.30108 65.7535 8.34278 65.6346 8.34278 65.4616V65.1544V62.6218C8.34278 62.3405 8.30323 62.1678 8.22383 62.1046C8.14627 62.0401 7.98776 62.0095 7.74567 62.0095H7.48467ZM15.108 68.1314H17.6596V69.2093C17.6596 70.2654 17.4894 70.9251 17.15 71.1885C16.8101 71.4536 16.0049 71.5835 14.7312 71.5835C13.4239 71.5835 12.6013 71.4466 12.2637 71.172C11.9277 70.896 11.7592 70.2422 11.7592 69.2093V64.5968C11.7592 63.5257 11.9337 62.863 12.2852 62.6065C12.6365 62.3491 13.4442 62.2198 14.7142 62.2198C16.0049 62.2198 16.8161 62.3564 17.155 62.6288C17.4912 62.9027 17.6596 63.5584 17.6596 64.5968V67.197H14.3111V69.4486C14.3111 69.6592 14.3411 69.8035 14.4034 69.8864C14.4636 69.9686 14.5672 70.0083 14.7142 70.0083C14.8371 70.0083 14.9332 69.9753 15.0022 69.9084C15.0743 69.8432 15.108 69.7491 15.108 69.6253V69.4486V68.1314ZM15.108 65.6062V64.3712C15.108 64.1563 15.0778 64.0111 15.0196 63.9326C14.9613 63.8555 14.8577 63.8176 14.7142 63.8176C14.5843 63.8176 14.4848 63.847 14.4162 63.9069C14.346 63.9659 14.3111 64.0521 14.3111 64.1652V64.3712V65.6062H15.108ZM18.2584 71.53V62.2742H20.8108V62.7108C21.0304 62.5466 21.2597 62.4243 21.4961 62.3415C21.7354 62.2608 21.984 62.2198 22.2414 62.2198C22.914 62.2198 23.4011 62.3968 23.7002 62.7496C24.0008 63.1023 24.1513 63.6904 24.1513 64.5124V64.7799V71.53H21.5991V64.4865C21.5991 64.3049 21.5698 64.1719 21.5118 64.0894C21.4527 64.0074 21.3627 63.9671 21.2399 63.9671C21.0752 63.9671 20.9638 64.0044 20.9033 64.0768C20.8414 64.149 20.8108 64.2856 20.8108 64.4865V71.53H18.2584ZM27.8907 60.1794V62.2742H28.8578V63.8711H27.8907V69.3529C27.8907 69.6118 27.9303 69.7861 28.0081 69.8756C28.0869 69.9646 28.2227 70.0083 28.4116 70.0083H28.8578V71.5581H27.6294C26.7485 71.5581 26.1449 71.4377 25.8234 71.1959C25.5001 70.955 25.3388 70.3403 25.3388 69.3529V63.8711H24.6644V62.2742H25.3388V60.1794H27.8907ZM32.9615 67.5843H35.5145V69.2093C35.5145 70.2654 35.3435 70.9238 35.0053 71.187C34.6648 71.452 33.8584 71.5835 32.5851 71.5835C31.2777 71.5835 30.457 71.4466 30.1187 71.172C29.7818 70.896 29.6144 70.2422 29.6144 69.2093V64.5953C29.6144 63.5257 29.7889 62.863 30.1396 62.6065C30.4914 62.3491 31.2986 62.2198 32.568 62.2198C33.8584 62.2198 34.671 62.3564 35.0093 62.6288C35.3449 62.9027 35.5145 63.5584 35.5145 64.5953V66.0228H32.9615V64.3694C32.9615 64.1563 32.9326 64.0111 32.8735 63.9326C32.8162 63.8555 32.7122 63.8176 32.568 63.8176C32.417 63.8176 32.312 63.8516 32.2536 63.9231C32.1958 63.994 32.1649 64.1426 32.1649 64.3694V69.4486C32.1649 69.6568 32.1958 69.8035 32.2586 69.8864C32.3188 69.9686 32.4216 70.0083 32.568 70.0083C32.6905 70.0083 32.7877 69.9753 32.8571 69.9084C32.9279 69.8432 32.9615 69.7491 32.9615 69.6253V69.4486V67.5843ZM36.2437 71.53V62.2742H38.7945V62.7108C39.0157 62.5515 39.2388 62.4301 39.4717 62.3461C39.7039 62.262 39.9328 62.2198 40.1596 62.2198C40.765 62.2198 41.2026 62.3983 41.4717 62.7529C41.742 63.1078 41.8748 63.6947 41.8748 64.5124V64.7799V66.0629H39.5838V64.4865C39.5838 64.3049 39.5529 64.1719 39.4952 64.0894C39.4372 64.0074 39.347 63.9671 39.224 63.9671C39.0605 63.9671 38.9476 64.0044 38.8875 64.0768C38.8259 64.149 38.7945 64.2856 38.7945 64.4865V71.53H36.2437ZM45.0406 64.3694V69.4486C45.0406 69.6568 45.0712 69.8035 45.1328 69.8864C45.1937 69.9686 45.2973 70.0083 45.4437 70.0083C45.5654 70.0083 45.6634 69.9765 45.7318 69.916C45.8033 69.8545 45.8383 69.7693 45.8383 69.6608V69.4486V64.3694C45.8383 64.1563 45.8072 64.0111 45.7492 63.9326C45.6922 63.8555 45.5886 63.8176 45.4437 63.8176C45.3144 63.8176 45.2154 63.847 45.146 63.9069C45.0751 63.9659 45.0406 64.0521 45.0406 64.1652V64.3694ZM42.489 64.5953C42.489 63.5257 42.6635 62.863 43.015 62.6065C43.3663 62.3491 44.1746 62.2198 45.4437 62.2198C46.7347 62.2198 47.5468 62.3564 47.8852 62.6288C48.2214 62.9027 48.3894 63.5584 48.3894 64.5953V69.2093C48.3894 70.2654 48.22 70.9238 47.8806 71.187C47.5402 71.452 46.7347 71.5835 45.4604 71.5835C44.1529 71.5835 43.3311 71.4466 42.9939 71.172C42.6578 70.896 42.489 70.2422 42.489 69.2093V64.5953ZM49.3073 62.0697V61.8866C49.3073 61.2089 49.4764 60.7452 49.811 60.497C50.1448 60.2491 50.7479 60.1246 51.6245 60.1246H52.9463V61.676H52.3812C52.2067 61.676 52.0777 61.7148 51.9906 61.7934C51.9026 61.8741 51.8592 61.9936 51.8592 62.152V62.2742H52.9463V63.8711H51.8592V71.53H49.3073V63.8711H48.6343V62.2742H49.3073V62.0697ZM6.33904 0C2.85265 0 0 2.66815 0 5.92978V70.071C0 73.3326 2.85265 76 6.33904 76H56.6608C60.1469 76 63 73.3326 63 70.071V5.92978C63 2.66815 60.1469 0 56.6608 0H6.33904ZM6.3866 1.73886C5.8952 1.76224 5.49338 1.8136 5.01367 1.92977C4.58537 2.07695 4.23665 2.23483 3.84343 2.45874C3.48132 2.71231 3.19352 2.95641 2.8865 3.27293C2.61381 3.61271 2.41203 3.92176 2.21321 4.30784C2.05253 4.7147 1.95511 5.06973 1.88416 5.50245L1.85879 70.0276C1.8834 70.4858 1.9391 70.8645 2.06177 71.3102C2.21983 71.7113 2.38927 72.0402 2.62733 72.4055C2.89943 72.746 3.16197 73.015 3.49764 73.3011C3.86237 73.5561 4.19464 73.7456 4.60399 73.9302C5.04229 74.0809 5.42227 74.1717 5.88105 74.2378L56.6143 74.2613C57.1051 74.2384 57.5072 74.1861 57.9849 74.0711C58.4134 73.9241 58.764 73.7661 59.1546 73.5432C59.5179 73.2886 59.8068 73.0432 60.1115 72.7295C60.3848 72.3881 60.5878 72.076 60.7863 71.6926C60.9468 71.2833 61.0447 70.9275 61.1154 70.4986L61.1411 5.97426C61.1161 5.51284 61.0596 5.13515 60.9365 4.69101C60.7782 4.28706 60.6078 3.96042 60.3711 3.59666C60.097 3.25444 59.8372 2.98668 59.5014 2.70177C59.135 2.44531 58.8023 2.25562 58.3935 2.07022C57.9546 1.91938 57.5754 1.82888 57.1166 1.76287L6.3866 1.73886ZM52.5357 48.8153C52.5357 47.4228 53.6764 46.2894 55.0784 46.2894C56.4807 46.2894 57.6228 47.4228 57.6228 48.8153C57.6228 50.2087 56.4807 51.3415 55.0784 51.3415C53.6764 51.3415 52.5357 50.2087 52.5357 48.8153ZM52.2021 48.8153C52.2021 47.2259 53.4779 45.9585 55.0784 45.9585C56.68 45.9585 57.9554 47.2259 57.9554 48.8153C57.9554 50.4049 56.68 51.6721 55.0784 51.6721C53.4779 51.6721 52.2021 50.4049 52.2021 48.8153ZM53.8509 50.523V47.1704H55.2132C56.094 47.1704 56.3071 47.6111 56.3071 48.0445C56.3071 48.3268 56.1813 48.7444 55.713 48.8867V48.9096C56.1725 48.9807 56.1888 49.3588 56.1962 49.7832C56.205 50.1845 56.2126 50.3576 56.339 50.523H55.8474C55.7603 50.3188 55.7525 50.2477 55.7525 50.1224C55.7525 50.02 55.7525 49.9168 55.7525 49.815C55.7603 49.4213 55.7603 49.0984 55.1191 49.0984H54.302V50.523H53.8509ZM54.302 47.5797H55.1114C55.5309 47.5797 55.8474 47.6667 55.8474 48.0916C55.8474 48.3268 55.7603 48.6889 55.1979 48.6889H54.302V47.5797ZM54.9718 36.4944C58.3578 29.7682 60.0938 19.5059 55.4057 12.8659C54.9718 16.9189 53.4956 20.7131 51.0641 24.0768C44.3782 32.1829 35.3481 36.4944 25.3622 37.7016C25.4497 42.5311 26.3176 47.2738 28.0537 51.4989C38.9947 51.5853 49.415 46.2387 54.9718 36.4944ZM51.1509 10.796L50.0226 9.50306C44.9863 7.17453 39.8633 10.2795 36.0425 13.4704C30.3986 18.9887 26.4045 25.3702 25.3622 32.8724C31.9613 31.9236 38.2136 29.3373 43.6826 25.3702C48.1119 21.748 52.8006 16.9189 51.1509 10.796Z" fill="#005CA9"/>
</svg>
