<svg width="32" height="32" viewBox="0 0 32 32" fill="none" xmlns="http://www.w3.org/2000/svg">
<circle cx="16" cy="16" r="16" fill="white"/>
<g clip-path="url(#clip0)">
<path d="M11.5201 15.0044C12.6816 17.3274 14.6727 19.2355 16.9957 20.48L18.8209 18.6548C19.0697 18.406 19.4016 18.323 19.6505 18.4889C20.5631 18.8207 21.5586 18.9867 22.6372 18.9867C23.1349 18.9867 23.4668 19.3185 23.4668 19.8163V22.637C23.4668 23.1348 23.1349 23.4667 22.6372 23.4667C14.8386 23.4667 8.53345 17.1615 8.53345 9.36295C8.53345 8.86518 8.8653 8.53333 9.36308 8.53333H12.2668C12.7646 8.53333 13.0964 8.86518 13.0964 9.36295C13.0964 10.3585 13.2623 11.3541 13.5942 12.3496C13.6772 12.5985 13.5942 12.9304 13.4283 13.1793L11.5201 15.0044Z" fill="#005CA9"/>
</g>
<defs>
<clipPath id="clip0">
<rect width="14.9333" height="14.9333" fill="white" transform="translate(8.53345 8.53333)"/>
</clipPath>
</defs>
</svg>
