<svg width="60" height="60" viewBox="0 0 60 60" fill="none" xmlns="http://www.w3.org/2000/svg">
<path d="M59.642 17.6284C59.6386 17.6058 59.6343 17.5833 59.6291 17.5609C59.2932 15.7723 58.7357 14.0612 57.9861 12.4568C57.9655 12.3956 57.938 12.3366 57.9036 12.2803C57.2064 10.8226 56.3501 9.45492 55.3572 8.20008C55.3204 8.13832 55.2766 8.07973 55.2234 8.02652C55.2163 8.01937 55.2084 8.01328 55.2011 8.00637C54.2257 6.80227 53.1233 5.70516 51.9145 4.73531C51.9077 4.72805 51.9016 4.72043 51.8946 4.71328C51.84 4.65879 51.7796 4.61379 51.716 4.57664C50.4561 3.58992 49.0835 2.7409 47.6217 2.05078C47.5661 2.01668 47.5075 1.98961 47.447 1.9691C45.8333 1.22496 44.113 0.673828 42.3152 0.347344C42.2929 0.342305 42.2704 0.338086 42.2477 0.334805C41.0159 0.114844 39.7481 0 38.454 0C37.4587 0 36.4796 0.069375 35.52 0.200508C35.517 0.200742 35.5139 0.201445 35.5107 0.201797C26.4107 1.45055 19.1039 8.40246 17.3243 17.3249C14.9885 17.7902 12.7391 18.6395 10.6767 19.8468C10.257 20.0925 10.116 20.6319 10.3616 21.0517C10.6073 21.4714 11.1469 21.6124 11.5664 21.3668C13.2728 20.3679 15.1192 19.6362 17.0375 19.1888C16.9529 19.9631 16.908 20.7493 16.908 21.546C16.908 22.8389 17.0228 24.1056 17.2421 25.3363C17.2457 25.3604 17.25 25.3845 17.2555 25.4082C17.582 27.2054 18.133 28.9252 18.8769 30.5382C18.8974 30.5989 18.9247 30.6577 18.9588 30.7136C19.6491 32.1752 20.4979 33.5477 21.4846 34.8076C21.5218 34.8713 21.5667 34.9316 21.6213 34.9862C21.6282 34.9932 21.6359 34.9991 21.643 35.0058C22.613 36.2147 23.7101 37.3172 24.9144 38.2928C24.9213 38.3002 24.9274 38.3079 24.9346 38.315C24.9877 38.3681 25.0462 38.412 25.1079 38.4486C26.3629 39.4417 27.7305 40.298 29.1882 40.9952C29.2445 41.0297 29.3037 41.0571 29.3647 41.0777C30.9694 41.8275 32.6807 42.3851 34.4696 42.7209C34.4916 42.726 34.5136 42.7302 34.5357 42.7336C35.8068 42.9681 37.1162 43.0917 38.454 43.0917C39.2509 43.0917 40.0373 43.0468 40.812 42.9621C38.7662 51.7064 30.9047 58.2384 21.5459 58.2384C10.6365 58.2384 1.76109 49.363 1.76109 38.4537C1.76109 32.9527 3.96492 27.8426 7.96652 24.0646C8.3202 23.7307 8.33613 23.1734 8.00238 22.8197C7.6684 22.466 7.11105 22.4501 6.7575 22.7838C4.64613 24.7772 2.98441 27.1297 1.81875 29.7762C0.61207 32.5168 0 35.4363 0 38.454C0 50.3346 9.66563 60 21.5461 60C31.9821 60 40.7078 52.5417 42.6757 42.6756C51.6503 40.8854 58.6321 33.5038 59.8206 24.3294C59.8212 24.324 59.8223 24.3188 59.8228 24.3135C59.9395 23.4071 60 22.4835 60 21.546C60 20.2084 59.8764 18.8992 59.642 17.6284ZM54.504 9.99117C55.0918 10.8055 55.6201 11.6655 56.0805 12.5658L40.4756 28.1707C39.994 27.2877 39.452 26.4423 38.856 25.6392L54.504 9.99117ZM53.4039 8.60027L37.7428 24.2613C37.0969 23.525 36.4023 22.8325 35.6628 22.19L51.3224 6.53062C52.0658 7.16859 52.762 7.86023 53.4039 8.60027ZM49.9262 5.43574L34.2782 21.0839C33.4716 20.4911 32.6227 19.9525 31.7364 19.4746L47.3388 3.87199C48.243 4.32832 49.1079 4.85133 49.9262 5.43574ZM42.4099 2.15883C43.5148 2.38406 44.5863 2.70199 45.6164 3.10348L30.0577 18.6621C29.0641 18.2332 28.0327 17.8764 26.9691 17.5996L42.4099 2.15883ZM36.0151 1.91168C36.8146 1.81289 37.6284 1.76121 38.4541 1.76121C39.0546 1.76121 39.6485 1.78957 40.2356 1.84219L24.9071 17.1707C23.8117 16.9984 22.6893 16.908 21.5461 16.908C21.3671 16.908 21.1884 16.9125 21.0098 16.917L36.0151 1.91168ZM32.8711 2.56465L19.4727 15.9632C21.3666 9.53519 26.4432 4.4584 32.8711 2.56465ZM18.7505 23.3276C18.6977 22.7404 18.6694 22.1464 18.6694 21.546C18.6694 20.7203 18.7211 19.9064 18.8198 19.107L19.1047 18.8221C19.912 18.722 20.7272 18.6693 21.5462 18.6693C22.1467 18.6693 22.7406 18.6976 23.3277 18.7502L18.7505 23.3276ZM19.0669 25.5018L25.5018 19.0669C26.6067 19.292 27.6782 19.6099 28.7082 20.0115L20.0114 28.7085C19.61 27.6783 19.292 26.6067 19.0669 25.5018ZM22.3439 33.0182C21.7594 32.1997 21.2364 31.3349 20.78 30.4308L30.4309 20.7799C31.335 21.2364 32.1998 21.7593 33.0183 22.3438L22.3439 33.0182ZM23.4387 34.4143L34.4143 23.4387C35.1578 24.0768 35.854 24.7683 36.4958 25.5083L25.5084 36.4957C24.7683 35.854 24.0768 35.1578 23.4387 34.4143ZM26.8992 37.5959L37.596 26.8992C38.1839 27.7136 38.7121 28.5735 39.1725 29.4737L29.4736 39.1726C28.5735 38.712 27.7134 38.1837 26.8992 37.5959ZM34.3802 40.908C33.2802 40.677 32.2133 40.3548 31.1884 39.9486L39.9487 31.1884C40.3548 32.2133 40.677 33.2802 40.9082 34.3802L34.3802 40.908ZM41.1989 40.7314L40.7316 41.1988C39.984 41.2849 39.2243 41.3307 38.454 41.3307C37.8088 41.3307 37.1709 41.2986 36.5413 41.2379L41.2379 36.5413C41.2986 37.1708 41.3307 37.8087 41.3307 38.454C41.3307 39.2243 41.285 39.9839 41.1989 40.7314ZM42.37 32.9184C42.088 31.8591 41.7272 30.8318 41.2943 29.843L56.8568 14.2806C57.2629 15.3055 57.585 16.3724 57.8161 17.4723L42.37 32.9184ZM43.8344 40.587L57.4951 26.9262C55.63 33.5181 50.4261 38.7218 43.8344 40.587ZM58.107 23.8234L43.0872 38.8432C43.0895 38.7136 43.0921 38.5841 43.0921 38.4539C43.0921 37.268 42.9942 36.1046 42.8089 34.9703L58.1461 19.6332C58.2068 20.2628 58.2389 20.9006 58.2389 21.546C58.2388 22.3162 58.193 23.076 58.107 23.8234Z" fill="#008BFF"/>
</svg>
