<svg width="60" height="60" viewBox="0 0 60 60" fill="none" xmlns="http://www.w3.org/2000/svg">
<g clip-path="url(#clip0)">
<path d="M32.9592 21.8701C33.0458 21.9024 33.1359 21.9174 33.2236 21.9174C33.5406 21.9174 33.8367 21.7217 33.9522 21.4071L40.7242 2.80171C40.8709 2.39932 40.6636 1.95535 40.2606 1.80871C39.8617 1.66323 39.4143 1.86933 39.2676 2.27173L32.4968 20.8771C32.349 21.2795 32.5574 21.724 32.9592 21.8701Z" fill="#008BFF"/>
<path d="M35.5618 23.3728C35.7073 23.4946 35.884 23.5541 36.0589 23.5541C36.2812 23.5541 36.5 23.46 36.6524 23.2775L49.3795 8.11013C49.6549 7.78221 49.611 7.29321 49.2836 7.01841C48.9551 6.74303 48.4673 6.78632 48.1919 7.11367L35.466 22.2811C35.1918 22.609 35.2339 23.0974 35.5618 23.3728Z" fill="#008BFF"/>
<path d="M37.4937 25.6747C37.6369 25.9235 37.8973 26.0621 38.1652 26.0621C38.2974 26.0621 38.4296 26.0286 38.552 25.9581L55.6984 16.0582C56.0697 15.844 56.1955 15.3706 55.9819 15C55.7683 14.6288 55.2937 14.5023 54.9237 14.7165L37.7772 24.6164C37.4066 24.8301 37.2795 25.304 37.4937 25.6747Z" fill="#008BFF"/>
<path d="M38.5206 28.4984C38.587 28.8743 38.9143 29.1387 39.2826 29.1387C39.3277 29.1387 39.3721 29.1346 39.4177 29.1266L58.9156 25.688C59.3365 25.6141 59.6182 25.2117 59.5443 24.7903C59.4693 24.3694 59.064 24.0888 58.646 24.1622L39.1487 27.6007C38.7284 27.6752 38.4467 28.077 38.5206 28.4984Z" fill="#008BFF"/>
<path d="M58.9168 34.3115L39.4189 30.8747C38.9963 30.8014 38.5956 31.0808 38.5206 31.5028C38.4467 31.9237 38.7278 32.3261 39.1493 32.4006L58.6472 35.8374C58.6928 35.846 58.7372 35.8495 58.7823 35.8495C59.1518 35.8495 59.4779 35.5851 59.5443 35.2093C59.6194 34.7878 59.3377 34.386 58.9168 34.3115Z" fill="#008BFF"/>
<path d="M55.6981 43.9417L38.5516 34.0429C38.1815 33.8287 37.7075 33.9563 37.4933 34.3264C37.2797 34.697 37.4067 35.1704 37.7768 35.3846L54.9233 45.2834C55.0451 45.3544 55.1773 45.3873 55.3101 45.3873C55.5774 45.3873 55.8378 45.2488 55.9815 45.0005C56.1952 44.6293 56.0687 44.1559 55.6981 43.9417Z" fill="#008BFF"/>
<path d="M36.6526 36.7229C36.3778 36.3961 35.8894 36.3522 35.5609 36.6282C35.2336 36.903 35.1903 37.3914 35.4651 37.7199L48.1922 52.8862C48.3457 53.0686 48.5651 53.1627 48.7862 53.1627C48.9623 53.1627 49.1384 53.1033 49.2827 52.982C49.6107 52.7066 49.6545 52.2176 49.3786 51.8897L36.6526 36.7229Z" fill="#008BFF"/>
<path d="M33.9528 38.5933C33.8061 38.1915 33.3604 37.9842 32.9598 38.1303C32.5574 38.2769 32.349 38.7209 32.4968 39.1233L39.2682 57.7281C39.3825 58.0433 39.6798 58.2384 39.9962 58.2384C40.0845 58.2384 40.1746 58.2234 40.2612 58.1917C40.6636 58.045 40.872 57.6011 40.7248 57.1981L33.9528 38.5933Z" fill="#008BFF"/>
<path d="M30.0004 38.6511C29.5726 38.6511 29.2256 38.9987 29.2256 39.4265V59.2252C29.2256 59.6524 29.5731 59.9999 30.0009 59.9999C30.4287 59.9999 30.7757 59.653 30.7757 59.2252L30.7751 39.4265C30.7751 38.9987 30.4282 38.6511 30.0004 38.6511Z" fill="#008BFF"/>
<path d="M27.0413 38.1305C26.6418 37.9844 26.195 38.1911 26.0483 38.5935L19.2775 57.1977C19.1308 57.6001 19.3387 58.0447 19.7411 58.1913C19.8277 58.2231 19.9177 58.2381 20.0061 58.2381C20.3219 58.2381 20.6198 58.0429 20.7335 57.7277L27.5049 39.1229C27.6515 38.7211 27.4431 38.2765 27.0413 38.1305Z" fill="#008BFF"/>
<path d="M24.44 36.6271C24.1115 36.3517 23.6225 36.3962 23.3483 36.7229L10.6218 51.8898C10.3464 52.2171 10.3897 52.7061 10.7176 52.9821C10.8625 53.1039 11.0392 53.1628 11.2147 53.1628C11.4358 53.1628 11.6557 53.0687 11.8087 52.8862L24.5347 37.7194C24.81 37.3915 24.7673 36.9031 24.44 36.6271Z" fill="#008BFF"/>
<path d="M22.5074 34.3259C22.2933 33.9547 21.8187 33.8288 21.4492 34.0424L4.30331 43.9418C3.93267 44.156 3.80623 44.6288 4.01984 44.9994C4.16302 45.2488 4.42397 45.3874 4.69127 45.3874C4.8229 45.3874 4.95568 45.3545 5.07807 45.2835L22.224 35.3841C22.5946 35.1705 22.7216 34.6965 22.5074 34.3259Z" fill="#008BFF"/>
<path d="M21.4807 31.5022C21.4056 31.0807 21.0015 30.8019 20.5823 30.874L1.08384 34.3126C0.662967 34.387 0.381234 34.7889 0.455131 35.2103C0.521523 35.5856 0.848865 35.8506 1.2172 35.8506C1.26223 35.8506 1.30726 35.8465 1.35287 35.8384L20.8508 32.4005C21.2728 32.3254 21.554 31.9242 21.4807 31.5022Z" fill="#008BFF"/>
<path d="M1.08384 25.6886L20.5818 29.1265C20.6274 29.1346 20.6724 29.1387 20.7174 29.1387C21.0863 29.1387 21.4131 28.8742 21.4795 28.4984C21.5534 28.0775 21.2722 27.6751 20.8508 27.6012L1.35345 24.1627C0.932 24.0882 0.530183 24.3694 0.455131 24.7908C0.381234 25.2123 0.662967 25.6141 1.08384 25.6886Z" fill="#008BFF"/>
<path d="M4.3022 16.0588L21.4487 25.9582C21.5711 26.0286 21.7039 26.0621 21.8355 26.0621C22.1028 26.0621 22.3637 25.9229 22.5069 25.6747C22.7205 25.304 22.5935 24.8306 22.2235 24.6165L5.07697 14.7171C4.70691 14.5035 4.23235 14.6299 4.01874 15.0006C3.80513 15.3706 3.93214 15.8446 4.3022 16.0588Z" fill="#008BFF"/>
<path d="M10.6209 8.11018L23.348 23.277C23.5016 23.4595 23.7204 23.5536 23.9421 23.5536C24.1176 23.5536 24.2942 23.4941 24.4391 23.3723C24.7665 23.0969 24.8098 22.6085 24.535 22.2806L11.8079 7.11372C11.5331 6.78695 11.0441 6.7425 10.7162 7.01846C10.5528 7.15586 10.4598 7.34695 10.4419 7.5444C10.4264 7.74242 10.4835 7.94622 10.6209 8.11018Z" fill="#008BFF"/>
<path d="M19.2771 2.80234L26.0485 21.4071C26.1634 21.7218 26.4596 21.9175 26.7765 21.9175C26.8637 21.9175 26.9538 21.9025 27.0409 21.8702C27.4428 21.7235 27.6506 21.2796 27.504 20.8772L20.7325 2.27236C20.5859 1.87054 20.1414 1.66213 19.7395 1.80934C19.4382 1.91903 19.2459 2.19673 19.2303 2.49809C19.2257 2.59854 19.2396 2.70188 19.2771 2.80234Z" fill="#008BFF"/>
<path d="M30.0004 21.3488C30.4276 21.3488 30.7751 21.0018 30.7751 20.5741V0.774767C30.7751 0.346971 30.4281 0 30.0004 0C29.5726 0 29.2256 0.346971 29.2256 0.774767V20.5741C29.2262 21.0018 29.5726 21.3488 30.0004 21.3488Z" fill="#008BFF"/>
<path d="M30.0005 23.9316C26.6543 23.9316 23.9316 26.6537 23.9316 29.9999C23.9316 33.346 26.6543 36.0693 30.0005 36.0693C33.3466 36.0693 36.0693 33.346 36.0693 29.9999C36.0693 26.6537 33.3466 23.9316 30.0005 23.9316ZM30.0005 34.5192C27.5087 34.5192 25.4818 32.4922 25.4818 29.9999C25.4818 27.5082 27.5087 25.4812 30.0005 25.4812C32.4916 25.4812 34.5192 27.5082 34.5192 29.9999C34.5197 32.491 32.4922 34.5192 30.0005 34.5192Z" fill="#008BFF"/>
</g>
<defs>
<clipPath id="clip0">
<rect width="59.9994" height="60" fill="white"/>
</clipPath>
</defs>
</svg>
