<svg width="60" height="60" viewBox="0 0 60 60" fill="none" xmlns="http://www.w3.org/2000/svg">
<path d="M33.9284 36.0305C33.354 36.0658 32.7831 36.0515 32.1964 35.9753C32.1552 35.9699 32.1155 35.9622 32.076 35.9541C32.5307 37.4092 32.7758 38.9561 32.7758 40.5591C32.7758 49.0895 25.8359 56.0295 17.3054 56.0295C15.859 56.0295 14.4272 55.8303 13.0501 55.4371C12.5834 55.3035 12.0969 55.5743 11.9637 56.041C11.8304 56.5077 12.1008 56.9942 12.5675 57.1274C14.1016 57.5652 15.6956 57.7873 17.3053 57.7873C26.805 57.7873 34.5335 50.0588 34.5335 40.5591C34.5335 38.9923 34.3221 37.4743 33.9284 36.0305Z" fill="#008BFF"/>
<path d="M46.6845 23.7722C47.0479 22.3794 47.2419 20.9189 47.2419 19.4139C47.2419 9.8898 39.4935 2.14148 29.9694 2.14148C27.317 2.14148 24.772 2.72695 22.4052 3.88183C21.9679 4.09523 21.7862 4.62281 21.9996 5.06015C22.213 5.4975 22.7406 5.67902 23.1779 5.46562C25.3021 4.42933 27.587 3.90386 29.9694 3.90386C38.5218 3.90386 45.4795 10.8616 45.4795 19.414C45.4795 20.8117 45.2926 22.1662 44.9443 23.4553C44.2117 23.3616 43.4689 23.3139 42.7275 23.3139C42.4686 23.3139 42.2106 23.3201 41.9536 23.3313C41.9382 23.3305 41.9232 23.329 41.9077 23.329C41.8623 23.329 41.818 23.3334 41.7744 23.3401C38.395 23.5223 35.192 24.6728 32.4592 26.6961C31.5585 27.363 30.7335 28.1065 29.9896 28.9158C29.2455 28.1065 28.4207 27.363 27.52 26.6961C24.7711 24.6609 21.5466 23.509 18.1452 23.3372C18.1078 23.3324 18.07 23.329 18.0312 23.329C18.0224 23.329 18.0139 23.33 18.0053 23.3303C17.755 23.3196 17.5038 23.3137 17.2518 23.3137C16.4971 23.3137 15.7412 23.3628 14.9958 23.4599C14.6467 22.1694 14.4593 20.8132 14.4593 19.4139C14.4593 15.6042 15.8536 11.9413 18.3853 9.09996C18.7091 8.73656 18.677 8.17968 18.3136 7.85589C17.9503 7.53222 17.3932 7.56421 17.0695 7.92761C14.2499 11.0923 12.697 15.1716 12.697 19.414C12.697 20.9242 12.8925 22.3894 13.2582 23.7865C5.66391 25.6009 0 32.4438 0 40.5861C0 45.9139 2.40328 50.8623 6.59355 54.1625C6.97594 54.4637 7.52988 54.398 7.83105 54.0156C8.13223 53.6333 8.06637 53.0793 7.68398 52.7782C3.92074 49.8143 1.76227 45.3703 1.76227 40.5861C1.76227 33.2295 6.91102 27.054 13.794 25.4707C15.8004 30.8113 20.3789 34.9031 26.0133 36.2285C25.6496 37.6211 25.4551 39.0812 25.4551 40.5861C25.4551 50.1102 33.2036 57.8585 42.7276 57.8585C52.2517 57.8585 60 50.1101 60 40.5861C60 32.4233 54.3077 25.566 46.6845 23.7722ZM17.15 28.1348C16.52 27.2118 15.9873 26.2175 15.5661 25.1667C16.0909 25.1101 16.6206 25.0806 17.15 25.0772V28.1348ZM20.8185 31.9286C20.1391 31.4304 19.5016 30.8784 18.9123 30.2788V25.1658C19.557 25.2339 20.1933 25.3409 20.8185 25.4876V31.9286ZM24.5391 33.9421C23.8629 33.6885 23.2086 33.3899 22.5809 33.0484V26.0145C23.2518 26.2598 23.9053 26.5533 24.5391 26.8919V33.9421ZM42.7889 25.0767C43.3188 25.0788 43.8489 25.1077 44.3745 25.163C43.953 26.2151 43.4196 27.2106 42.7889 28.1348V25.0767ZM39.1203 25.4966C39.7455 25.3482 40.3819 25.2397 41.0265 25.1699V30.2789C40.4372 30.8786 39.7997 31.4305 39.1203 31.9287V25.4966ZM35.3999 26.914C36.0335 26.5728 36.687 26.2764 37.3581 26.0286V33.0483C36.7302 33.3899 36.0759 33.6885 35.3999 33.9421V26.914ZM33.508 28.1123C33.5507 28.0807 33.5946 28.0515 33.6375 28.0203V34.4846C33.5737 34.5001 33.5102 34.5162 33.4461 34.5309C32.8805 33.0189 32.1037 31.5859 31.1334 30.2809C31.8421 29.4862 32.6347 28.7589 33.508 28.1123ZM32.593 38.1782H27.4066C27.4936 37.6234 27.61 37.0785 27.7542 36.5447C28.4797 36.638 29.2191 36.6862 29.9694 36.6862C30.7399 36.6862 31.4985 36.6348 32.2425 36.5365C32.3885 37.0763 32.5058 37.6242 32.593 38.1782ZM29.9898 31.7302C30.6596 32.6924 31.2193 33.7305 31.658 34.8318C31.1032 34.8921 30.54 34.924 29.9695 34.924C29.4123 34.924 28.862 34.8937 28.3198 34.8362C28.7586 33.7335 29.3189 32.6937 29.9898 31.7302ZM26.3013 34.4845V27.9916C26.3578 28.0323 26.4152 28.0709 26.4713 28.1123C27.348 28.7614 28.1436 29.4922 28.8544 30.2905C27.8921 31.5846 27.1143 33.011 26.5438 34.542C26.4627 34.5236 26.382 34.5042 26.3013 34.4845ZM27.2174 40.5861C27.2174 40.3689 27.2232 40.1531 27.2321 39.938C27.2488 39.9389 27.2653 39.9405 27.2822 39.9405H32.7687C32.7777 40.1553 32.7825 40.3706 32.7825 40.5861C32.7825 41.0079 32.7646 41.4284 32.7302 41.8467H27.2688C27.2353 41.4308 27.2174 41.0105 27.2174 40.5861ZM27.5141 43.609H32.4831C32.3508 44.2731 32.1751 44.9272 31.9582 45.5672H28.0379C27.822 44.9319 27.6469 44.278 27.5141 43.609ZM30.0035 49.4447C29.5366 48.7759 29.1204 48.0693 28.7617 47.3296H31.2383C30.8842 48.0645 30.4713 48.7719 30.0035 49.4447ZM42.7275 56.0961C38.1239 56.0961 33.9831 54.0793 31.1401 50.8839C33.3405 47.9208 34.5449 44.2924 34.5449 40.5861C34.5449 39.103 34.3521 37.6339 33.9806 36.215C39.5939 34.875 44.1521 30.7876 46.1495 25.4585C53.0606 27.021 58.2376 33.2094 58.2376 40.5861C58.2376 49.1385 51.2798 56.0961 42.7275 56.0961Z" fill="#008BFF"/>
</svg>
