<svg width="60" height="60" viewBox="0 0 60 60" fill="none" xmlns="http://www.w3.org/2000/svg">
<path d="M56 0V20.986C55.9947 25.962 52.8576 30.3959 48.167 32.057C42.6775 34.0011 39.0061 39.1904 39 45.014V54C39 56.2091 37.2091 58 35 58H25C22.7909 58 21 56.2091 21 54V45.014C20.9939 39.1904 17.3225 34.0011 11.833 32.057C7.14237 30.3959 4.00525 25.962 4 20.986V0H2V20.986C2.00612 26.8096 5.6775 31.9989 11.167 33.943C15.8576 35.6041 18.9947 40.038 19 45.014V54C19.0032 57.3124 21.6876 59.9967 25 60H35C38.3124 59.9967 40.9967 57.3124 41 54V45.014C41.0052 40.038 44.1424 35.6041 48.833 33.943C54.3225 31.9989 57.9939 26.8096 58 20.986V0H56Z" fill="#008BFF"/>
<path d="M31 6H29V8H31V6Z" fill="#008BFF"/>
<path d="M31 14H29V16H31V14Z" fill="#008BFF"/>
<path d="M31 18H29V20H31V18Z" fill="#008BFF"/>
<path d="M31 10H29V12H31V10Z" fill="#008BFF"/>
<path d="M33.293 19.293L30.586 22H29.414L26.707 19.293L25.293 20.707L29.293 24.707C29.4805 24.8945 29.7347 25 30 25C30.2652 25 30.5195 24.8945 30.707 24.707L34.707 20.707L33.293 19.293Z" fill="#008BFF"/>
<path d="M10.2481 21.553L8.37207 22.245C8.62207 22.9227 8.9277 23.5787 9.28607 24.206L11.0221 23.212C10.7184 22.6814 10.4596 22.1265 10.2481 21.553Z" fill="#008BFF"/>
<path d="M25.8275 38.885L23.8535 39.21C23.9511 39.8016 24.0003 40.4004 24.0005 41H26.0005C26.0001 40.2915 25.9423 39.5841 25.8275 38.885Z" fill="#008BFF"/>
<path d="M21.764 31.4139L20.417 32.8899C20.869 33.3014 21.2857 33.7501 21.663 34.2309L23.237 32.9999C22.7906 32.4314 22.298 31.9009 21.764 31.4139Z" fill="#008BFF"/>
<path d="M9.18432 9.95287L7.18652 10.0469L7.28052 12.0447L9.27832 11.9507L9.18432 9.95287Z" fill="#008BFF"/>
<path d="M15.1636 27.3189C15.0436 27.2519 14.9276 27.1839 14.8116 27.1129L13.7686 28.8199C13.9019 28.9019 14.0396 28.9825 14.1816 29.0619L15.5396 29.8259L16.5196 28.0829L15.1636 27.3189Z" fill="#008BFF"/>
<path d="M9.00171 5.95256L7.00391 6.04736L7.09871 8.04516L9.09651 7.95036L9.00171 5.95256Z" fill="#008BFF"/>
<path d="M9.37377 13.9506L7.37598 14.0446L7.46998 16.0424L9.46777 15.9484L9.37377 13.9506Z" fill="#008BFF"/>
<path d="M12.0616 24.718L10.5156 25.988C10.9749 26.5459 11.4793 27.065 12.0236 27.54L13.3366 26.032C12.8759 25.6303 12.4494 25.1908 12.0616 24.718Z" fill="#008BFF"/>
<path d="M24.425 34.8059L22.668 35.7609C22.9603 36.298 23.2071 36.8587 23.406 37.4369L25.297 36.7869C25.0621 36.1034 24.7705 35.4407 24.425 34.8059Z" fill="#008BFF"/>
<path d="M19.3892 29.697L18.2632 29.063L17.2832 30.807L18.4092 31.44C18.6002 31.546 18.7842 31.658 18.9652 31.774L20.0452 30.092C19.8322 29.954 19.6132 29.823 19.3892 29.697Z" fill="#008BFF"/>
<path d="M9.5992 18.458L9.5752 17.939L7.5752 18.033L7.6002 18.567C7.6342 19.1012 7.70107 19.6328 7.8002 20.159L9.7662 19.789C9.68345 19.3491 9.6277 18.9046 9.5992 18.458Z" fill="#008BFF"/>
<path d="M33.293 44.293L30 47.586L26.707 44.293L25.293 45.707L29.293 49.707C29.6835 50.0974 30.3165 50.0974 30.707 49.707L34.707 45.707L33.293 44.293Z" fill="#008BFF"/>
<path d="M50.6038 13.9308L50.5098 15.9286L52.5076 16.0226L52.6016 14.0248L50.6038 13.9308Z" fill="#008BFF"/>
<path d="M50.4293 17.939L50.4063 18.439C50.3779 18.8906 50.3218 19.3402 50.2383 19.785L52.2043 20.155C52.304 19.6252 52.3712 19.09 52.4053 18.552L52.4293 18.033L50.4293 17.939Z" fill="#008BFF"/>
<path d="M50.7922 9.93811L50.6982 11.9359L52.696 12.0299L52.79 10.0321L50.7922 9.93811Z" fill="#008BFF"/>
<path d="M50.9817 5.94068L50.8877 7.93848L52.8855 8.03248L52.9795 6.03468L50.9817 5.94068Z" fill="#008BFF"/>
<path d="M49.7525 21.553C49.541 22.1265 49.2821 22.6815 48.9785 23.212L50.7145 24.206C51.0729 23.5787 51.3785 22.9227 51.6285 22.245L49.7525 21.553Z" fill="#008BFF"/>
<path d="M38.2357 31.411C37.7016 31.899 37.2089 32.4305 36.7627 33L38.3367 34.234C38.7138 33.752 39.1306 33.3025 39.5827 32.89L38.2357 31.411Z" fill="#008BFF"/>
<path d="M35.5751 34.8059C35.2296 35.4407 34.938 36.1034 34.7031 36.7869L36.5941 37.4369C36.793 36.8587 37.0398 36.298 37.3321 35.7609L35.5751 34.8059Z" fill="#008BFF"/>
<path d="M45.1885 27.1129C45.0725 27.1839 44.9565 27.2519 44.8385 27.3189L43.4805 28.0829L44.4605 29.8259L45.8205 29.0619C45.9585 28.9829 46.0965 28.9019 46.2315 28.8199L45.1885 27.1129Z" fill="#008BFF"/>
<path d="M41.7371 29.063L40.6111 29.697C40.3871 29.823 40.1681 29.954 39.9551 30.092L41.0351 31.774C41.2161 31.658 41.4001 31.546 41.5911 31.44L42.7171 30.807L41.7371 29.063Z" fill="#008BFF"/>
<path d="M34.173 38.885C34.0583 39.5841 34.0004 40.2915 34 41H36C36.0003 40.4004 36.0494 39.8016 36.147 39.21L34.173 38.885Z" fill="#008BFF"/>
<path d="M47.9381 24.718C47.5503 25.1908 47.1238 25.6303 46.6631 26.032L47.9761 27.54C48.5205 27.065 49.0248 26.5459 49.4841 25.988L47.9381 24.718Z" fill="#008BFF"/>
<path d="M33.293 49.293L30 52.586L26.707 49.293L25.293 50.707L29.293 54.707C29.6835 55.0973 30.3165 55.0973 30.707 54.707L34.707 50.707L33.293 49.293Z" fill="#008BFF"/>
</svg>
