<svg width="1920" height="1370" viewBox="0 0 1920 1370" fill="none" xmlns="http://www.w3.org/2000/svg">
<path fill-rule="evenodd" clip-rule="evenodd" d="M1518.98 -430.657C1080.86 -400.327 727.659 21.1697 585.002 395.453C483.104 698.939 523.898 1073.25 612.174 1369.96H-53.4994C-124.794 1079.99 -80.6653 752.895 7.65228 486.517C194.426 -15.9146 710.666 -447.524 1264.26 -461C1355.96 -461 1437.44 -454.253 1518.98 -430.657ZM1879 783.248C2011.44 520.237 2079.34 118.957 1895.97 -140.685C1879 17.7988 1821.26 166.159 1726.16 297.69C1464.65 614.658 1111.45 783.248 720.857 830.451C724.282 1019.3 758.226 1204.75 826.132 1369.96C1254.08 1373.34 1661.65 1164.27 1879 783.248ZM1729.55 -221.624L1685.42 -272.18C1488.43 -363.231 1288.05 -241.819 1138.61 -117.049C917.851 98.7322 761.627 348.263 720.857 641.618C978.974 604.516 1223.52 503.388 1437.44 348.263C1610.68 206.626 1794.08 17.7988 1729.55 -221.624Z" fill="#0770C7" fill-opacity="0.2"/>
</svg>
