<svg width="875" height="763" viewBox="0 0 875 763" fill="none" xmlns="http://www.w3.org/2000/svg">
<path fill-rule="evenodd" clip-rule="evenodd" d="M670.95 12.6441C488.139 25.2831 340.761 200.926 281.236 356.894C238.718 483.361 255.74 639.339 292.574 762.983H14.8131C-14.9357 642.151 3.47778 505.845 40.3294 394.842C118.263 185.473 333.671 5.61563 564.664 0C602.929 0 636.926 2.81138 670.95 12.6441ZM821.173 518.493C876.436 408.893 904.768 241.675 828.256 133.479C821.173 199.521 797.08 261.345 757.397 316.155C648.279 448.24 500.901 518.493 337.923 538.163C339.352 616.857 353.516 694.137 381.85 762.983C560.416 764.39 730.482 677.271 821.173 518.493ZM758.814 99.7507L740.399 78.6837C658.203 40.7416 574.592 91.3354 512.234 143.329C420.121 233.247 354.935 337.23 337.923 459.474C445.626 444.014 547.667 401.872 636.926 337.23C709.215 278.208 785.737 199.521 758.814 99.7507Z" fill="#0770C7"/>
</svg>
