<svg width="1074" height="232" viewBox="0 0 1074 232" fill="none" xmlns="http://www.w3.org/2000/svg">
<path fill-rule="evenodd" clip-rule="evenodd" d="M1053.9 1.10587V43.4194H1073.48V75.6754H1053.9V186.403C1053.9 191.633 1054.71 195.153 1056.32 196.962C1057.89 198.758 1060.62 199.641 1064.44 199.641H1073.48V230.946H1048.65C1030.85 230.946 1018.66 228.513 1012.18 223.629C1005.65 218.764 1002.39 206.347 1002.39 186.403V75.6754H988.751V43.4194H1002.39V1.10587H1053.9ZM0 230.378V1.10587H68.1683C97.821 1.10587 116.75 3.82208 124.962 9.29889C133.098 14.7698 137.188 27.8719 137.188 48.5509V105.887C137.188 126.757 133.098 139.921 124.873 145.386C116.629 150.869 97.8211 153.58 68.5133 153.58H59.8315V230.378H0ZM59.8315 38.0723V116.625C60.5152 116.625 61.4912 116.655 62.7097 116.767C63.9722 116.865 64.8826 116.909 65.4606 116.909C69.9935 116.909 73.0647 116.267 74.6779 114.976C76.3224 113.698 77.1646 111.296 77.1646 107.802V101.596V50.4401C77.1646 44.7592 76.3656 41.2709 74.762 39.9925C73.1952 38.69 69.9935 38.0723 65.1035 38.0723H59.8315ZM213.816 161.729H265.356V183.501C265.356 204.834 261.918 218.159 255.064 223.481C248.197 228.834 231.933 231.459 206.206 231.459C179.798 231.459 163.183 228.693 156.363 223.148C149.576 217.572 146.173 204.365 146.173 183.501V90.334C146.173 68.6983 149.698 55.3117 156.798 50.1316C163.895 44.9324 180.209 42.3205 205.861 42.3205C231.933 42.3205 248.318 45.0804 255.163 50.5817C261.955 56.1141 265.356 69.3591 265.356 90.334V142.854H197.719V188.336C197.719 192.59 198.326 195.504 199.584 197.178C200.8 198.839 202.892 199.641 205.861 199.641C208.344 199.641 210.284 198.975 211.68 197.622C213.134 196.307 213.816 194.405 213.816 191.905V188.336V161.729ZM213.816 110.722V85.7772C213.816 81.4361 213.206 78.5035 212.031 76.9165C210.853 75.3605 208.761 74.5949 205.861 74.5949C203.237 74.5949 201.229 75.1873 199.843 76.3981C198.425 77.5893 197.719 79.3305 197.719 81.615V85.7772V110.722H213.816ZM277.452 230.378V43.4194H329.007V52.237C333.443 48.9214 338.075 46.4511 342.85 44.7781C347.684 43.1481 352.704 42.3205 357.905 42.3205C371.49 42.3205 381.328 45.8953 387.371 53.0211C393.442 60.1461 396.483 72.0259 396.483 88.6293V94.0321V230.378H344.93V88.1046C344.93 84.4367 344.339 81.751 343.167 80.0842C341.973 78.429 340.155 77.6139 337.675 77.6139C334.348 77.6139 332.098 78.3675 330.876 79.8306C329.626 81.2879 329.007 84.0478 329.007 88.1046V230.378H277.452ZM472.015 1.10587V43.4194H491.55V75.6754H472.015V186.403C472.015 191.633 472.814 195.153 474.387 196.962C475.979 198.758 478.72 199.641 482.538 199.641H491.55V230.946H466.737C448.943 230.946 436.752 228.513 430.257 223.629C423.727 218.764 420.468 206.347 420.468 186.403V75.6754H406.847V43.4194H420.468V1.10587H472.015ZM574.44 150.677H626.009V183.501C626.009 204.834 622.555 218.134 615.723 223.451C608.846 228.803 592.557 231.459 566.837 231.459C540.429 231.459 523.851 228.693 517.019 223.148C510.214 217.572 506.832 204.365 506.832 183.501V90.3031C506.832 68.6983 510.357 55.3117 517.441 50.1316C524.548 44.9324 540.852 42.3205 566.492 42.3205C592.557 42.3205 608.971 45.0804 615.804 50.5817C622.583 56.1141 626.009 69.3591 626.009 90.3031V119.138H574.44V85.7398C574.44 81.436 573.856 78.5035 572.662 76.9165C571.506 75.3605 569.405 74.5949 566.492 74.5949C563.443 74.5949 561.322 75.2802 560.141 76.7249C558.975 78.1576 558.351 81.1583 558.351 85.7398V188.336C558.351 192.541 558.975 195.504 560.243 197.178C561.459 198.839 563.535 199.641 566.492 199.641C568.966 199.641 570.931 198.975 572.333 197.622C573.763 196.307 574.44 194.405 574.44 191.905V188.336V150.677ZM640.738 230.378V43.4194H692.262V52.237C696.729 49.02 701.237 46.5688 705.94 44.8705C710.631 43.1729 715.254 42.3205 719.836 42.3205C732.065 42.3205 740.903 45.9264 746.34 53.0888C751.798 60.2575 754.481 72.1125 754.481 88.6293V94.0321V119.946H708.206V88.1046C708.206 84.4367 707.582 81.751 706.416 80.0842C705.244 78.429 703.423 77.6139 700.938 77.6139C697.634 77.6139 695.356 78.3675 694.14 79.8306C692.896 81.2879 692.262 84.0478 692.262 88.1046V230.378H640.738ZM818.428 85.7398V188.336C818.428 192.541 819.047 195.504 820.29 197.178C821.521 198.839 823.613 199.641 826.569 199.641C829.029 199.641 831.008 198.999 832.389 197.776C833.834 196.535 834.54 194.813 834.54 192.621V188.336V85.7398C834.54 81.436 833.912 78.5035 832.74 76.9165C831.59 75.3605 829.498 74.5949 826.569 74.5949C823.958 74.5949 821.959 75.1873 820.557 76.3981C819.124 77.5893 818.428 79.3305 818.428 81.615V85.7398ZM766.887 90.3031C766.887 68.6983 770.412 55.3117 777.513 50.1316C784.609 44.9324 800.936 42.3205 826.569 42.3205C852.647 42.3205 869.052 45.0804 875.887 50.5817C882.676 56.1141 886.071 69.3591 886.071 90.3031V183.501C886.071 204.834 882.648 218.134 875.794 223.451C868.918 228.803 852.647 231.459 826.908 231.459C800.497 231.459 783.898 228.693 777.087 223.148C770.298 217.572 766.887 204.365 766.887 183.501V90.3031ZM904.61 39.2888V35.5905C904.61 21.9013 908.027 12.5349 914.785 7.52096C921.528 2.51332 933.71 0 951.417 0H978.116V31.3361H966.702C963.176 31.3361 960.572 32.1201 958.812 33.7071C957.034 35.3371 956.157 37.7512 956.157 40.9498V43.4194H978.116V75.6754H956.157V230.378H904.61V75.6754H891.017V43.4194H904.61V39.2888Z" fill="white"/>
</svg>
