<svg width="14" height="14" viewBox="0 0 14 14" fill="none" xmlns="http://www.w3.org/2000/svg">
<path d="M6.5441 1.0123C6.72105 0.619394 7.27895 0.619393 7.4559 1.0123L9.10681 4.67806C9.17953 4.83954 9.33226 4.95051 9.50832 4.96977L13.5048 5.4071C13.9332 5.45397 14.1056 5.98456 13.7866 6.27427L10.8104 8.97715C10.6793 9.09622 10.6209 9.27577 10.657 9.44916L11.4761 13.3852C11.5639 13.8071 11.1125 14.135 10.7384 13.9211L7.24815 11.9259C7.09439 11.838 6.90561 11.838 6.75185 11.9259L3.26156 13.9211C2.88746 14.135 2.43611 13.8071 2.5239 13.3852L3.34297 9.44916C3.37905 9.27577 3.32071 9.09622 3.18961 8.97715L0.213424 6.27427C-0.105574 5.98456 0.066826 5.45397 0.495185 5.4071L4.49168 4.96977C4.66774 4.95051 4.82047 4.83954 4.89319 4.67806L6.5441 1.0123Z" fill="#FFD361"/>
</svg>
